<svg width="30" height="20" viewBox="0 0 30 20" fill="none" xmlns="http://www.w3.org/2000/svg">
<path d="M17.5006 5.625H13.7506V9.375H17.5006C18.5344 9.375 19.3756 8.53375 19.3756 7.5C19.3756 6.46625 18.5344 5.625 17.5006 5.625Z" fill="#FFC632"/>
<path d="M26.5631 0H3.43802C1.54177 0 0.000518799 1.54125 0.000518799 3.4375V16.5625C0.000518799 18.4588 1.54177 20 3.43802 20H26.5631C28.4593 20 30.0006 18.4588 30.0006 16.5625V3.4375C30.0006 1.54125 28.4593 0 26.5631 0ZM7.81303 5.62501H4.68802C4.17052 5.62501 3.75052 5.20501 3.75052 4.68751C3.75052 4.17001 4.17052 3.75 4.68802 3.75H7.81303C8.33053 3.75 8.75053 4.17001 8.75053 4.68751C8.75053 5.20501 8.33053 5.62501 7.81303 5.62501ZM17.5005 11.25H13.7505V12.5H16.563C17.0805 12.5 17.5005 12.92 17.5005 13.4375C17.5005 13.955 17.0805 14.375 16.563 14.375H13.7505V15.3125C13.7505 15.83 13.3305 16.25 12.813 16.25C12.2955 16.25 11.8755 15.83 11.8755 15.3125V14.375H9.68803C9.17053 14.375 8.75053 13.955 8.75053 13.4375C8.75053 12.92 9.17053 12.5 9.68803 12.5H11.8755V4.68751C11.8755 4.17001 12.2955 3.75 12.813 3.75H17.5005C19.568 3.75 21.2505 5.43251 21.2505 7.50001C21.2505 9.56751 19.568 11.25 17.5005 11.25ZM25.3131 16.25H22.188C21.6705 16.25 21.2505 15.83 21.2505 15.3125C21.2505 14.795 21.6705 14.375 22.188 14.375H25.3131C25.8306 14.375 26.2506 14.795 26.2506 15.3125C26.2506 15.83 25.8306 16.25 25.3131 16.25Z" fill="#FFC632"/>
</svg>
