<svg width="22" height="22" viewBox="0 0 22 22" fill="none" xmlns="http://www.w3.org/2000/svg">
<path d="M19.4219 0H2.57812C1.15655 0 0 1.15655 0 2.57812V6.01562H1.71875V2.57812C1.71875 2.10427 2.10427 1.71875 2.57812 1.71875H19.4219C19.8957 1.71875 20.2812 2.10427 20.2812 2.57812V19.4219C20.2812 19.8957 19.8957 20.2812 19.4219 20.2812H2.57812C2.10427 20.2812 1.71875 19.8957 1.71875 19.4219V15.9844H0V19.4219C0 20.8435 1.15655 22 2.57812 22H19.4219C20.8435 22 22 20.8435 22 19.4219V2.57812C22 1.15655 20.8435 0 19.4219 0Z" fill="white"/>
</svg>
