<svg width="196" height="60" viewBox="0 0 196 60" fill="none" xmlns="http://www.w3.org/2000/svg">
<g clip-path="url(#clip0_0_2261)">
<path d="M60.344 21.701C63.0156 26.4775 62.7391 34.2782 60.5931 39.3011C60.0949 40.4694 56.8417 40.6233 55.0108 43.8926C53.1799 47.1618 54.5288 50.4912 54.0044 51.0441C50.1596 55.1055 44.7629 58.4638 38.909 59.4325C37.6336 59.6441 35.6707 57.1368 31.8894 57.1368C26.8427 57.1368 24.7963 60.3821 23.5371 59.9626C19.7259 58.6909 12.9242 56.8724 8.53262 51.7509C7.77162 50.8638 9.90267 48.0429 7.70935 44.3337C5.51603 40.6245 1.47564 39.8624 1.12192 38.5944C-0.507189 32.7673 -0.111122 24.9979 0.755743 21.9065C1.1817 21.6048 1.70979 21.0075 1.82563 21.1145C2.97273 22.1277 5.1785 25.3705 5.07761 25.5004C4.00524 26.8754 3.49708 29.1903 3.49708 30.569C3.49741 32.6389 4.34971 34.6239 5.86651 36.0875C7.38332 37.551 9.44041 38.3732 11.5853 38.3732C13.7637 38.3732 16.2173 37.4657 17.3781 36.1184C17.6086 35.8503 18.184 35.4405 18.2413 35.6051C18.2986 35.7698 20.2889 38.265 20.4545 38.5042C20.6202 38.7434 19.8542 39.1953 19.696 39.2254C17.9448 39.5943 16.37 40.5137 15.2186 41.8393C14.0671 43.1649 13.404 44.8218 13.3333 46.5502C13.2626 48.2786 13.7883 49.9808 14.828 51.3898C15.8676 52.7989 17.3625 53.8351 19.0781 54.3361C20.7937 54.8371 22.633 54.7744 24.3078 54.158C25.9825 53.5416 27.3979 52.4062 28.3321 50.93C29.2662 49.4537 29.6663 47.72 29.4696 46.0007C29.2728 44.2814 28.4904 42.6737 27.245 41.4298C27.2948 41.2086 27.4019 40.8288 27.58 40.8288C29.5441 40.8288 33.0265 40.8829 34.7055 40.9947C34.7902 40.9947 34.8064 41.2591 34.9147 41.6401C34.038 42.5811 33.4116 43.7138 33.0896 44.9405C32.7677 46.1672 32.7598 47.4511 33.0667 48.6814C33.3736 49.9117 33.986 51.0515 34.8512 52.0024C35.7163 52.9533 36.8082 53.6869 38.0327 54.1397C39.2571 54.5926 40.5773 54.7512 41.8794 54.6019C43.1816 54.4525 44.4265 53.9997 45.5068 53.2825C46.5872 52.5653 47.4705 51.6052 48.0806 50.4851C48.6907 49.3649 49.0092 48.1184 49.0088 46.8529C49.0088 43.2387 45.8103 39.467 42.3179 39.3059C42.2607 39.3059 42.029 38.991 42.0963 38.8912C42.6592 38.0571 43.5497 36.8479 44.0965 35.9777C44.1459 35.8722 44.2252 35.7824 44.3252 35.7186C44.4253 35.6548 44.5421 35.6196 44.662 35.6171C45.8601 37.5126 48.305 38.372 50.6665 38.372C52.2226 38.3739 53.746 37.942 55.0538 37.1283C56.3616 36.3146 57.3981 35.1537 58.0386 33.7852C58.6791 32.4167 58.8964 30.8987 58.6644 29.4139C58.4324 27.929 57.761 26.5404 56.7308 25.415C58.0785 24.308 58.969 22.7804 60.344 21.701ZM58.2516 19.5712C58.2204 19.7779 57.452 21.1024 56.3049 22.3092C55.9985 22.6313 55.4455 23.2179 55.2325 23.5111C55.0195 23.8044 55.1079 23.8357 54.7443 23.659C54.3806 23.4823 52.1761 22.5015 51.7551 22.5315C51.3341 22.5616 48.4607 22.6517 47.8205 23.0316C47.1804 23.4114 43.6095 25.6133 43.0092 26.2323C42.6032 26.6506 42.6356 26.2047 42.5708 27.3778C42.506 28.5509 42.3752 30.0221 42.3752 30.5786C42.3752 31.1351 42.4911 31.1098 42.2295 31.2998C41.968 31.4897 40.984 31.8022 40.4634 31.718C40.3389 31.6988 40.2828 31.6856 40.2579 31.6796C40.4846 31.7491 40.6908 31.8698 40.8595 32.0317C41.2643 32.4224 41.5545 32.7024 41.5258 32.8419C41.4972 32.9813 41.4386 33.0931 41.0911 33.9873C40.7436 34.8815 39.5567 36.6412 39.2092 37.1725C39.0286 37.4489 38.9202 37.5631 38.711 37.3119C38.5017 37.0607 38.1032 36.5571 37.9288 35.9705C37.7545 35.384 37.2052 34.7686 37.2338 35.2998C37.2625 35.8311 36.8863 36.5018 36.7705 36.8924C36.6547 37.283 36.5687 37.5907 36.3657 37.4513C36.1627 37.3119 35.6184 37.4874 35.0081 37.3203C34.3978 37.1532 34.6743 36.9874 34.6121 36.3479C34.5498 35.7085 34.5249 35.5378 34.2646 36.1244C34.0043 36.7109 34.1164 36.9429 34.0292 37.5294C33.9681 37.9405 33.9295 38.2037 33.7178 38.2434C33.2345 38.3335 32.7214 38.0727 32.2631 38.2554C32.0277 38.3492 31.7125 38.2554 31.4809 37.9766C31.3563 37.8215 31.0475 37.0258 30.9017 36.7193C30.756 36.4128 30.6414 36.5511 30.4683 37.3059C30.4284 37.4778 29.3386 37.8648 29.1369 38.116C28.9351 38.3672 28.818 38.4766 28.615 38.116C28.412 37.7554 27.5352 35.8684 27.5352 36.0643C27.5352 36.2602 27.372 37.4958 27.169 37.3864C26.966 37.277 26.677 37.3864 26.3295 37.5535C25.982 37.7206 25.9559 38.0283 25.779 37.8888C25.6021 37.7494 25.1563 36.8768 24.9009 36.4573C24.6456 36.0378 24.6107 35.8155 24.5273 36.2902C24.4438 36.765 24.0054 38.1905 23.7738 38.0499C23.0713 37.6268 20.9951 35.0606 20.6762 34.4188C20.3574 33.777 20.0099 33.4957 20.0971 33.301C20.1842 33.1063 20.6762 31.9031 20.9079 31.932C21.1395 31.9608 21.979 32.0714 22.5868 31.6519C23.1946 31.2324 22.5681 31.0041 22.1048 30.7252C21.6415 30.4464 18.717 29.3274 18.8042 29.0209C18.1665 24.8573 15.4165 23.5159 12.6365 23.0111C9.85658 22.5063 7.57484 23.7563 7.27467 23.4835C7.17254 23.3909 6.42275 22.7804 5.61941 21.1036C5.35107 20.5537 5.00666 20.0414 4.59561 19.5808C4.33156 18.8247 7.2809 17.1661 8.09421 16.4269C8.90751 15.6877 8.61856 15.3139 8.51892 14.2994C8.41928 13.285 8.08798 10.559 7.99207 9.73201C7.89617 8.90507 7.89742 8.57814 8.23246 8.30049C8.5675 8.02284 9.29984 7.5012 10.0509 6.86897C14.2395 3.33765 20.4869 1.26429 22.9193 0.859237C23.9631 0.68856 28.062 4.73672 28.9314 4.73672C30.5268 4.73672 32.0987 4.22469 32.8372 3.44463C33.0863 3.179 35.8899 0.94097 36.3122 0.499856C36.7344 0.0587413 36.8975 -0.0241924 37.4705 0.00465429C37.8665 0.0250874 39.2989 0.115235 42.6181 1.35805C45.9374 2.60086 49.0088 4.27517 49.8009 4.80042C50.593 5.32567 50.9405 5.23072 51.4362 5.80525C51.9319 6.37978 52.7951 7.45673 53.5536 8.33895C54.3121 9.22118 54.5599 9.34018 54.5288 9.69235C54.4977 10.0445 54.55 13.7321 54.3955 15.7021C54.3544 16.2309 54.2847 17.5795 54.4989 17.4317C54.7131 17.2838 55.0681 16.9028 55.22 17.0206C55.372 17.1384 58.2815 19.3656 58.2516 19.5712ZM27.311 16.4052C27.4741 15.8908 28.4456 13.2802 28.4867 13.0061C28.5278 12.7321 27.9947 12.8078 27.7905 12.4532C27.5862 12.0986 25.6607 8.46276 25.4577 8.10217C25.2547 7.74159 25.2086 7.6286 24.4339 7.54927C23.6592 7.46995 18.4555 7.27283 18.0059 7.30889C17.5562 7.34494 17.4728 7.18869 16.8588 7.78245C16.2447 8.37621 13.6653 10.5097 13.4199 10.7465C13.1746 10.9832 12.6727 12.8427 12.8097 13.5218C12.9467 14.2009 13.7475 17.5819 13.9107 18.1745C14.0738 18.767 14.1971 18.7682 14.8523 19.3211C15.5074 19.874 18.2512 21.1385 18.7009 21.2575C19.1505 21.3765 19.3161 21.2178 19.7657 20.981C20.2154 20.7443 26.0605 18.0002 26.4703 17.8415C26.88 17.6829 27.1466 16.9185 27.311 16.4052ZM33.2445 23.2563C33.0963 22.7755 32.8273 22.7299 32.7812 22.0015C32.7351 21.2731 32.141 19.8452 31.9156 18.6721C31.8035 18.0843 31.9554 18.1625 31.0599 17.8476C30.5841 17.6805 30.4484 17.6985 30.2603 18.094C29.7885 19.1326 29.2438 20.139 28.6299 21.106C28.072 21.9594 27.8914 21.2611 27.8914 22.296C27.8914 23.4018 28.0545 26.6638 28.189 27.1903C28.3236 27.7167 28.5502 27.5136 28.9102 27.4307C29.2701 27.3477 29.2004 27.4391 30.1071 27.873C30.4135 28.0196 30.5219 27.742 30.771 27.1663C31.1081 26.4066 31.3948 25.627 31.6291 24.8321C31.8558 24.022 31.9965 28.1242 32.2207 28.2047C32.4449 28.2853 32.7339 28.1735 32.9593 27.2828C33.1847 26.3922 33.3927 23.7383 33.2445 23.2527V23.2563ZM48.2677 10.6359C48.0086 9.95918 45.2785 8.77406 44.9285 8.56973C44.5785 8.3654 44.0816 7.45432 44.0106 7.3149C43.9396 7.17547 43.2346 7.41225 42.3914 7.51442C41.5482 7.61658 38.645 8.04087 38.2925 8.00722C37.94 7.97356 37.5514 8.17669 37.3048 8.41588C37.0582 8.65507 33.7527 10.8114 33.7963 11.3582C33.8349 11.839 34.3119 16.6011 34.3119 16.767C34.3119 16.9329 34.561 17.2478 35.0168 17.5507C35.4727 17.8536 38.1966 19.6445 39.1145 19.743C40.5693 19.9005 44.5947 19.844 45.1552 19.844C45.7157 19.844 45.6335 19.6096 46.027 18.6901C46.4206 17.7706 48.3748 13.5903 48.518 13.2501C48.6613 12.91 48.9627 12.7441 49.1744 12.4712C49.3861 12.1984 48.599 11.5037 48.2677 10.6323V10.6359Z" fill="#FFC632"/>
<path d="M81.5738 28.7082H81.6062L86.8821 25.3499L86.7576 20.1948L83.1556 18.1515L86.6542 15.9735L86.5296 10.7583L81.0632 7.64404L70.4764 7.88443L70.9908 28.9522L81.5738 28.7082ZM81.4493 23.7333L80.2038 24.511L76.2742 24.5999L76.1733 20.4352L80.134 20.345L81.3907 21.1551L81.4493 23.7333ZM79.9235 11.923L81.1802 12.7343L81.2438 15.3413L79.9983 16.1202L76.0687 16.2091L75.9653 12.0131L79.9235 11.923Z" fill="#E5E5E5"/>
<path d="M89.9834 20.9628L92.2029 20.345L90.1441 21.6383L89.2934 21.5349L89.464 28.5266L94.852 28.4065L94.7748 25.2369L93.7186 24.3607L94.7499 24.2489L94.6465 20.0157L99.844 19.8955L105.146 16.2668L105 10.3328L99.5339 7.21973L88.9471 7.46012L89.2635 20.4291L89.9834 20.9628ZM98.403 11.5011L99.6584 12.3124L99.7219 14.9194L98.4764 15.6983L94.5469 15.7872L94.4448 11.5912L98.403 11.5011Z" fill="#E5E5E5"/>
<path d="M112.331 19.6722L113.643 27.9789L116.686 27.9092L117.622 19.522L119.253 27.8515L124.641 27.7277L122.304 18.4366L122.435 16.4318L121.776 15.3236L121.315 13.6914L121.684 12.5832L120.544 6.7417L116.836 6.82584L114.911 14.9366L112.431 6.9268L108.723 7.01094L105.689 28.1592L111.077 28.0366L112.331 19.6722Z" fill="#E5E5E5"/>
<path d="M135.724 6.39551V6.42556L125.138 6.6371L125.413 17.8645L126.544 17.8921L126.256 18.6133L126.034 20.5364L125.653 27.706L136.24 27.4656H136.271L141.548 24.1074L141.192 9.51216L135.724 6.39551ZM134.867 23.2372L130.938 23.3273L130.63 10.7694L134.592 10.6792L135.849 11.4906L136.117 22.4896L134.867 23.2372Z" fill="#E5E5E5"/>
<path d="M159.43 15.0314L159.285 9.09862L153.819 5.98438L143.232 6.22476L143.746 27.2937L149.133 27.1735L148.929 18.7815L150.673 18.7418L155.22 27.0353L157.473 26.9848L157.887 25.7829L159.755 25.3249L155.624 17.6132L159.43 15.0314ZM152.758 14.4641L151.546 14.4918L150.618 15.4533L150.363 17.0759L150.113 15.0483L149.192 14.5434L148.818 14.5519L148.716 10.3559L152.677 10.2657L153.933 11.077L153.997 13.684L152.758 14.4641Z" fill="#E5E5E5"/>
<path d="M177.61 23.2837L177.253 8.68846L171.788 5.60547L166.59 5.72566L161.282 9.05505L161.639 23.6803L167.071 26.7621H167.103L172.334 26.6419L177.612 23.2837H177.61ZM172.743 14.0768L172.027 15.4218L172.18 21.6719L170.934 22.4195L169.48 23.5013L168.273 22.4808L166.987 21.7897L166.718 10.7919L167.934 9.92406L170.659 9.86276L171.916 10.6729L171.978 13.2318L173.548 12.4289L172.743 14.0768Z" fill="#E5E5E5"/>
<path d="M196 14.1996L195.856 8.26561L190.389 5.15137L179.802 5.39176L179.974 12.47L180.678 11.5085L181.218 13.333L180.053 15.5542L180.319 26.4571L185.706 26.3369L185.504 17.9473L190.7 17.8271L196 14.1996ZM189.328 13.6311L187.65 13.6696L185.854 15.1528L185.398 13.72L185.295 9.52405L189.257 9.4339L190.514 10.2452L190.577 12.8522L189.328 13.6311Z" fill="#E5E5E5"/>
<path d="M70.0642 49.2089L66.5133 49.1235L66.4037 53.4097L71.7917 53.5371L71.8789 50.126L70.87 49.7389L70.0642 49.2089Z" fill="#E5E5E5"/>
<path d="M79.8711 32.6196L77.1983 33.8192L76.598 35.1678L74.4333 35.7291L74.0609 50.3531L79.3343 53.6873H79.3655L84.5629 53.8111H84.5941L90.0319 50.733L90.1639 45.5478L84.7771 45.4204L84.69 48.8363L83.4034 49.525L80.7417 49.4625L79.4925 48.7125L79.7727 37.7147L81.0307 36.9046L81.9436 36.9262L82.803 35.9779L84.4645 34.3468L83.7558 36.9695L84.9702 37.8385L84.8855 41.1643L90.2723 41.2929L90.4043 36.1077L85.0997 32.7434L79.8711 32.6196Z" fill="#E5E5E5"/>
<path d="M98.1874 33.0835L92.7147 36.1629L92.3411 50.787L97.6145 54.1212H97.6469L102.878 54.2414L108.317 51.1319L108.428 46.7929L107.712 46.3121L106.446 46.9576L107.646 45.6354L108.46 45.5236L108.689 36.5415L103.384 33.2073L98.1874 33.0835ZM102.974 49.2701L101.689 49.96L99.0269 49.8963L97.7814 49.1463L98.0616 38.1485L99.3183 37.3384L102.043 37.4033L103.259 38.2723L102.974 49.2701Z" fill="#E5E5E5"/>
<path d="M121.447 33.6064L119.118 41.6174L117.043 33.5018L113.335 33.4141L111.29 43.9119L112.178 43.9263L113.171 43.0609L112.448 44.4648L110.98 45.5057L109.249 54.3977L114.635 54.5251L116.306 46.2292L117.202 54.5864L120.245 54.6585L121.599 46.3242L122.811 54.7198L128.199 54.8472L125.155 33.6953L121.447 33.6064Z" fill="#E5E5E5"/>
</g>
<defs>
<clipPath id="clip0_0_2261">
<rect width="196" height="60" fill="white"/>
</clipPath>
</defs>
</svg>
