<svg width="26" height="38" viewBox="0 0 26 38" fill="none" xmlns="http://www.w3.org/2000/svg">
<g filter="url(#filter0_d)">
<path d="M4.57473 15.978H8.48072V29.5161C8.48072 29.7834 8.73797 30 9.05545 30H15.6782C15.9957 30 16.2529 29.7834 16.2529 29.5161V16.0418H20.7432C21.0351 16.0418 21.2808 15.8573 21.3141 15.6132L21.9961 10.6291C22.0148 10.492 21.9632 10.3546 21.8542 10.2518C21.7452 10.1488 21.5891 10.0899 21.4253 10.0899H16.2531V6.96561C16.2531 6.02381 16.8555 5.54623 18.0436 5.54623C18.2129 5.54623 21.4253 5.54623 21.4253 5.54623C21.7428 5.54623 22 5.32955 22 5.06235V0.487452C22 0.220161 21.7428 0.00358065 21.4253 0.00358065H16.7648C16.7319 0.00222581 16.6589 0 16.5513 0C15.7427 0 12.9319 0.133645 10.7116 1.85332C8.25151 3.759 8.59348 6.04074 8.67521 6.43636V10.0898H4.57473C4.25725 10.0898 4 10.3064 4 10.5736V15.494C4 15.7613 4.25725 15.978 4.57473 15.978Z" fill="#FFC632"/>
</g>
<defs>
<filter id="filter0_d" x="0" y="0" width="26" height="38" filterUnits="userSpaceOnUse" color-interpolation-filters="sRGB">
<feFlood flood-opacity="0" result="BackgroundImageFix"/>
<feColorMatrix in="SourceAlpha" type="matrix" values="0 0 0 0 0 0 0 0 0 0 0 0 0 0 0 0 0 0 127 0" result="hardAlpha"/>
<feOffset dy="4"/>
<feGaussianBlur stdDeviation="2"/>
<feColorMatrix type="matrix" values="0 0 0 0 0 0 0 0 0 0 0 0 0 0 0 0 0 0 0.25 0"/>
<feBlend mode="normal" in2="BackgroundImageFix" result="effect1_dropShadow"/>
<feBlend mode="normal" in="SourceGraphic" in2="effect1_dropShadow" result="shape"/>
</filter>
</defs>
</svg>
