<svg width="56" height="44" viewBox="0 0 56 44" fill="none" xmlns="http://www.w3.org/2000/svg">
<g filter="url(#filter0_d)">
<path d="M47.5 0H46H10H8.5C6.016 0 4 2.016 4 4.5V6V30V31.5C4 33.984 6.016 36 8.5 36H10H46H47.5C49.984 36 52 33.984 52 31.5V30V6V4.5C52 2.016 49.984 0 47.5 0ZM42.202 3L28 14.214L13.798 3H42.202ZM46 33H10V7.938L28 21.783L46 7.935V33Z" fill="#FFC632"/>
</g>
<defs>
<filter id="filter0_d" x="0" y="0" width="56" height="44" filterUnits="userSpaceOnUse" color-interpolation-filters="sRGB">
<feFlood flood-opacity="0" result="BackgroundImageFix"/>
<feColorMatrix in="SourceAlpha" type="matrix" values="0 0 0 0 0 0 0 0 0 0 0 0 0 0 0 0 0 0 127 0" result="hardAlpha"/>
<feOffset dy="4"/>
<feGaussianBlur stdDeviation="2"/>
<feColorMatrix type="matrix" values="0 0 0 0 0 0 0 0 0 0 0 0 0 0 0 0 0 0 0.25 0"/>
<feBlend mode="normal" in2="BackgroundImageFix" result="effect1_dropShadow"/>
<feBlend mode="normal" in="SourceGraphic" in2="effect1_dropShadow" result="shape"/>
</filter>
</defs>
</svg>
