<svg width="50" height="32" viewBox="0 0 50 32" fill="none" xmlns="http://www.w3.org/2000/svg">
<g filter="url(#filter0_d)">
<path fill-rule="evenodd" clip-rule="evenodd" d="M40.147 15.2286C41.5402 16.5888 43.0106 17.8686 44.2602 19.366C44.8122 20.0314 45.3347 20.718 45.7345 21.4902C46.301 22.588 45.7879 23.796 44.8036 23.8615L38.6849 23.8588C37.1068 23.9897 35.8479 23.3544 34.7893 22.2754C33.9422 21.4125 33.1577 20.4942 32.3431 19.6022C32.0092 19.2376 31.6596 18.8946 31.2421 18.6234C30.4068 18.0812 29.6818 18.2472 29.2044 19.1184C28.7183 20.0045 28.608 20.9856 28.5603 21.9731C28.4947 23.4139 28.0592 23.7927 26.6119 23.8586C23.5189 24.0045 20.5835 23.5366 17.8566 21.9763C15.4525 20.6007 13.5881 18.6589 11.9655 16.4605C8.80609 12.1798 6.38663 7.47593 4.21211 2.64033C3.72265 1.55087 4.08061 0.966045 5.28268 0.945346C7.27877 0.906569 9.27458 0.90933 11.273 0.942586C12.0843 0.954454 12.6214 1.41977 12.9346 2.18619C14.0146 4.84162 15.336 7.36802 16.9947 9.70979C17.4364 10.3332 17.8868 10.9567 18.5282 11.3955C19.2378 11.8814 19.778 11.7204 20.1118 10.9299C20.3237 10.4287 20.4164 9.88891 20.4641 9.35211C20.6223 7.50533 20.6431 5.66172 20.3657 3.82143C20.1955 2.6729 19.5485 1.92938 18.4025 1.71204C17.8177 1.60123 17.9048 1.38362 18.1879 1.04981C18.6797 0.474095 19.1423 0.115723 20.0644 0.115723H26.9794C28.068 0.33058 28.3098 0.819633 28.4588 1.91503L28.4648 9.59622C28.4529 10.0203 28.6766 11.2786 29.4404 11.5593C30.0517 11.7591 30.4547 11.2701 30.8215 10.8825C32.4771 9.12524 33.6588 7.04857 34.7144 4.8982C35.1829 3.95266 35.5857 2.97069 35.9761 1.98955C36.2653 1.26149 36.7192 0.903257 37.5393 0.919126L44.1946 0.92506C44.392 0.92506 44.5916 0.927958 44.7828 0.960663C45.9043 1.15179 46.2116 1.63421 45.8652 2.72934C45.3194 4.44751 44.2576 5.87934 43.2193 7.31779C42.1094 8.85353 40.9224 10.3367 39.8217 11.8815C38.8105 13.2923 38.8908 14.0034 40.147 15.2286Z" fill="#FFC632"/>
</g>
<defs>
<filter id="filter0_d" x="0" y="0.115723" width="50" height="31.7682" filterUnits="userSpaceOnUse" color-interpolation-filters="sRGB">
<feFlood flood-opacity="0" result="BackgroundImageFix"/>
<feColorMatrix in="SourceAlpha" type="matrix" values="0 0 0 0 0 0 0 0 0 0 0 0 0 0 0 0 0 0 127 0" result="hardAlpha"/>
<feOffset dy="4"/>
<feGaussianBlur stdDeviation="2"/>
<feColorMatrix type="matrix" values="0 0 0 0 0 0 0 0 0 0 0 0 0 0 0 0 0 0 0.25 0"/>
<feBlend mode="normal" in2="BackgroundImageFix" result="effect1_dropShadow"/>
<feBlend mode="normal" in="SourceGraphic" in2="effect1_dropShadow" result="shape"/>
</filter>
</defs>
</svg>
