<svg width="1611" height="494" viewBox="0 0 1611 494" fill="none" xmlns="http://www.w3.org/2000/svg">
<mask id="path-1-inside-1" fill="white">
<path d="M496.24 178.495C518.185 217.742 515.914 281.837 498.286 323.109C494.194 332.708 467.471 333.972 452.431 360.835C437.392 387.698 448.472 415.054 444.165 419.597C412.582 452.968 368.252 480.562 320.167 488.522C309.69 490.26 293.567 469.659 262.506 469.659C221.05 469.659 204.241 496.324 193.898 492.877C162.591 482.428 106.72 467.486 70.6464 425.404C64.3953 418.116 81.9004 394.937 63.8838 364.46C45.8673 333.982 12.6783 327.721 9.77278 317.302C-3.60918 269.423 -0.355771 205.584 6.76491 180.183C10.2639 177.704 14.6018 172.796 15.5532 173.675C24.9759 182.001 43.0947 208.646 42.266 209.713C33.4572 221.011 29.283 240.032 29.283 251.36C29.2857 268.368 36.2868 284.678 48.7462 296.703C61.2057 308.729 78.1032 315.485 95.7222 315.485C113.616 315.485 133.771 308.028 143.306 296.957C145.199 294.755 149.925 291.387 150.396 292.74C150.867 294.093 167.215 314.596 168.576 316.561C169.937 318.526 163.645 322.24 162.346 322.487C147.961 325.518 135.025 333.072 125.567 343.964C116.108 354.856 110.661 368.47 110.081 382.672C109.5 396.874 113.818 410.86 122.358 422.438C130.898 434.015 143.177 442.53 157.27 446.646C171.362 450.762 186.471 450.248 200.228 445.183C213.985 440.118 225.611 430.789 233.285 418.659C240.958 406.529 244.245 392.284 242.628 378.157C241.012 364.03 234.585 350.821 224.355 340.599C224.764 338.782 225.644 335.661 227.107 335.661C243.241 335.661 271.847 336.106 285.638 337.024C286.333 337.024 286.466 339.197 287.356 342.328C280.155 350.059 275.009 359.366 272.365 369.446C269.72 379.525 269.656 390.074 272.176 400.183C274.697 410.292 279.728 419.657 286.835 427.471C293.941 435.284 302.91 441.312 312.968 445.033C323.026 448.754 333.871 450.057 344.567 448.83C355.263 447.603 365.489 443.882 374.363 437.989C383.237 432.096 390.493 424.207 395.505 415.004C400.516 405.8 403.133 395.557 403.129 385.16C403.129 355.463 376.856 324.472 348.169 323.148C347.698 323.148 345.795 320.561 346.348 319.741C350.972 312.887 358.287 302.952 362.778 295.802C363.184 294.935 363.835 294.197 364.657 293.672C365.479 293.148 366.438 292.859 367.423 292.839C377.265 308.413 397.349 315.475 416.746 315.475C429.528 315.49 442.042 311.941 452.785 305.255C463.527 298.569 472.041 289.031 477.303 277.786C482.564 266.542 484.349 254.069 482.443 241.869C480.538 229.668 475.022 218.259 466.56 209.011C477.63 199.916 484.945 187.363 496.24 178.495ZM479.052 160.994C478.796 162.693 472.484 173.576 463.061 183.492C460.544 186.139 456.002 190.958 454.253 193.368C452.503 195.778 453.229 196.034 450.242 194.583C447.255 193.131 429.146 185.072 425.688 185.319C422.23 185.566 398.627 186.306 393.369 189.427C388.11 192.548 358.778 210.641 353.847 215.727C350.512 219.164 350.778 215.5 350.246 225.139C349.714 234.778 348.639 246.866 348.639 251.439C348.639 256.011 349.591 255.804 347.442 257.364C345.294 258.925 337.211 261.492 332.935 260.801C331.912 260.643 331.452 260.534 331.247 260.485C333.109 261.056 334.803 262.048 336.188 263.379C339.513 266.588 341.897 268.89 341.662 270.035C341.427 271.181 340.946 272.099 338.091 279.447C335.237 286.795 325.487 301.253 322.632 305.618C321.149 307.89 320.259 308.828 318.54 306.764C316.821 304.7 313.548 300.562 312.115 295.742C310.683 290.923 306.171 285.866 306.406 290.232C306.642 294.597 303.552 300.108 302.601 303.317C301.649 306.527 300.943 309.055 299.275 307.91C297.608 306.764 293.137 308.206 288.124 306.833C283.111 305.46 285.382 304.098 284.87 298.843C284.359 293.589 284.154 292.187 282.016 297.007C279.878 301.826 280.799 303.732 280.082 308.552C279.581 311.929 279.264 314.092 277.525 314.418C273.555 315.159 269.34 313.016 265.575 314.517C263.641 315.287 261.053 314.517 259.15 312.225C258.127 310.951 255.59 304.414 254.393 301.895C253.196 299.377 252.254 300.512 250.832 306.715C250.505 308.127 241.553 311.307 239.896 313.371C238.238 315.435 237.276 316.334 235.609 313.371C233.941 310.408 226.739 294.903 226.739 296.513C226.739 298.123 225.398 308.275 223.731 307.376C222.063 306.478 219.69 307.376 216.835 308.749C213.981 310.122 213.766 312.65 212.313 311.505C210.86 310.359 207.198 303.189 205.1 299.742C203.003 296.295 202.717 294.468 202.031 298.369C201.346 302.27 197.744 313.983 195.841 312.828C190.071 309.352 173.016 288.266 170.397 282.993C167.778 277.719 164.924 275.408 165.64 273.808C166.356 272.208 170.397 262.322 172.3 262.559C174.203 262.796 181.099 263.705 186.091 260.258C191.084 256.811 185.938 254.935 182.132 252.644C178.326 250.352 154.304 241.158 155.02 238.639C149.782 204.429 127.192 193.407 104.357 189.259C81.5218 185.111 62.7789 195.383 60.3132 193.141C59.4743 192.38 53.3153 187.363 46.7164 173.586C44.5122 169.067 41.6832 164.858 38.3067 161.073C36.1377 154.861 60.3644 141.232 67.0451 135.159C73.7259 129.085 71.3523 126.014 70.5339 117.678C69.7154 109.343 66.994 86.9441 66.2062 80.1494C65.4184 73.3547 65.4287 70.6684 68.1808 68.387C70.9329 66.1057 76.9486 61.8195 83.1178 56.6247C117.524 27.609 168.842 10.573 188.823 7.24474C197.397 5.84235 231.066 39.1047 238.207 39.1047C251.313 39.1047 264.225 34.8975 270.291 28.488C272.338 26.3054 295.367 7.91632 298.836 4.29183C302.304 0.667334 303.644 -0.0141051 308.35 0.222919C311.604 0.390811 323.369 1.13152 350.634 11.3433C377.9 21.5551 403.129 35.3123 409.636 39.6281C416.143 43.944 418.997 43.1638 423.069 47.8845C427.141 52.6052 434.231 61.4541 440.461 68.7031C446.692 75.9521 448.728 76.9298 448.472 79.8235C448.216 82.7171 448.646 113.017 447.377 129.203C447.04 133.549 446.467 144.63 448.227 143.415C449.986 142.2 452.902 139.07 454.15 140.037C455.398 141.005 479.298 159.306 479.052 160.994V160.994ZM224.897 134.981C226.237 130.754 234.217 109.303 234.555 107.052C234.893 104.8 230.514 105.422 228.836 102.509C227.158 99.5952 211.341 69.7203 209.674 66.7575C208.006 63.7947 207.627 62.8664 201.264 62.2146C194.9 61.5627 152.156 59.9431 148.462 60.2394C144.769 60.5356 144.084 59.2518 139.04 64.1305C133.996 69.0092 112.808 86.5391 110.792 88.4847C108.777 90.4303 104.654 105.708 105.779 111.288C106.905 116.868 113.483 144.65 114.823 149.518C116.164 154.387 117.176 154.397 122.558 158.94C127.939 163.483 150.478 173.873 154.171 174.85C157.864 175.828 159.225 174.524 162.919 172.579C166.612 170.633 214.625 148.086 217.991 146.783C221.357 145.479 223.547 139.198 224.897 134.981ZM273.637 191.274C272.419 187.324 270.21 186.948 269.831 180.964C269.452 174.979 264.572 163.246 262.721 153.607C261.8 148.778 263.048 149.42 255.692 146.832C251.784 145.459 250.669 145.607 249.124 148.857C245.248 157.391 240.774 165.66 235.732 173.606C231.148 180.618 229.665 174.88 229.665 183.383C229.665 192.469 231.005 219.273 232.11 223.598C233.215 227.924 235.077 226.255 238.034 225.573C240.99 224.892 240.417 225.643 247.865 229.208C250.382 230.413 251.272 228.131 253.318 223.401C256.088 217.159 258.443 210.753 260.367 204.222C262.229 197.565 263.386 231.272 265.227 231.934C267.069 232.595 269.442 231.677 271.294 224.359C273.146 217.041 274.854 195.234 273.637 191.244V191.274ZM397.042 87.5761C394.914 82.0159 372.488 72.2782 369.613 70.5993C366.738 68.9204 362.656 61.4344 362.072 60.2887C361.489 59.1431 355.699 61.0887 348.772 61.9281C341.846 62.7676 317.998 66.2538 315.103 65.9773C312.207 65.7008 309.015 67.3698 306.99 69.3351C304.964 71.3005 277.811 89.018 278.169 93.5116C278.486 97.462 282.405 136.591 282.405 137.954C282.405 139.316 284.451 141.904 288.195 144.393C291.94 146.881 314.315 161.597 321.855 162.407C333.805 163.7 366.871 163.236 371.475 163.236C376.079 163.236 375.403 161.31 378.636 153.755C381.869 146.2 397.921 111.851 399.098 109.056C400.275 106.261 402.75 104.899 404.49 102.657C406.229 100.415 399.763 94.7066 397.042 87.5465V87.5761Z"/>
</mask>
<path d="M496.24 178.495C518.185 217.742 515.914 281.837 498.286 323.109C494.194 332.708 467.471 333.972 452.431 360.835C437.392 387.698 448.472 415.054 444.165 419.597C412.582 452.968 368.252 480.562 320.167 488.522C309.69 490.26 293.567 469.659 262.506 469.659C221.05 469.659 204.241 496.324 193.898 492.877C162.591 482.428 106.72 467.486 70.6464 425.404C64.3953 418.116 81.9004 394.937 63.8838 364.46C45.8673 333.982 12.6783 327.721 9.77278 317.302C-3.60918 269.423 -0.355771 205.584 6.76491 180.183C10.2639 177.704 14.6018 172.796 15.5532 173.675C24.9759 182.001 43.0947 208.646 42.266 209.713C33.4572 221.011 29.283 240.032 29.283 251.36C29.2857 268.368 36.2868 284.678 48.7462 296.703C61.2057 308.729 78.1032 315.485 95.7222 315.485C113.616 315.485 133.771 308.028 143.306 296.957C145.199 294.755 149.925 291.387 150.396 292.74C150.867 294.093 167.215 314.596 168.576 316.561C169.937 318.526 163.645 322.24 162.346 322.487C147.961 325.518 135.025 333.072 125.567 343.964C116.108 354.856 110.661 368.47 110.081 382.672C109.5 396.874 113.818 410.86 122.358 422.438C130.898 434.015 143.177 442.53 157.27 446.646C171.362 450.762 186.471 450.248 200.228 445.183C213.985 440.118 225.611 430.789 233.285 418.659C240.958 406.529 244.245 392.284 242.628 378.157C241.012 364.03 234.585 350.821 224.355 340.599C224.764 338.782 225.644 335.661 227.107 335.661C243.241 335.661 271.847 336.106 285.638 337.024C286.333 337.024 286.466 339.197 287.356 342.328C280.155 350.059 275.009 359.366 272.365 369.446C269.72 379.525 269.656 390.074 272.176 400.183C274.697 410.292 279.728 419.657 286.835 427.471C293.941 435.284 302.91 441.312 312.968 445.033C323.026 448.754 333.871 450.057 344.567 448.83C355.263 447.603 365.489 443.882 374.363 437.989C383.237 432.096 390.493 424.207 395.505 415.004C400.516 405.8 403.133 395.557 403.129 385.16C403.129 355.463 376.856 324.472 348.169 323.148C347.698 323.148 345.795 320.561 346.348 319.741C350.972 312.887 358.287 302.952 362.778 295.802C363.184 294.935 363.835 294.197 364.657 293.672C365.479 293.148 366.438 292.859 367.423 292.839C377.265 308.413 397.349 315.475 416.746 315.475C429.528 315.49 442.042 311.941 452.785 305.255C463.527 298.569 472.041 289.031 477.303 277.786C482.564 266.542 484.349 254.069 482.443 241.869C480.538 229.668 475.022 218.259 466.56 209.011C477.63 199.916 484.945 187.363 496.24 178.495ZM479.052 160.994C478.796 162.693 472.484 173.576 463.061 183.492C460.544 186.139 456.002 190.958 454.253 193.368C452.503 195.778 453.229 196.034 450.242 194.583C447.255 193.131 429.146 185.072 425.688 185.319C422.23 185.566 398.627 186.306 393.369 189.427C388.11 192.548 358.778 210.641 353.847 215.727C350.512 219.164 350.778 215.5 350.246 225.139C349.714 234.778 348.639 246.866 348.639 251.439C348.639 256.011 349.591 255.804 347.442 257.364C345.294 258.925 337.211 261.492 332.935 260.801C331.912 260.643 331.452 260.534 331.247 260.485C333.109 261.056 334.803 262.048 336.188 263.379C339.513 266.588 341.897 268.89 341.662 270.035C341.427 271.181 340.946 272.099 338.091 279.447C335.237 286.795 325.487 301.253 322.632 305.618C321.149 307.89 320.259 308.828 318.54 306.764C316.821 304.7 313.548 300.562 312.115 295.742C310.683 290.923 306.171 285.866 306.406 290.232C306.642 294.597 303.552 300.108 302.601 303.317C301.649 306.527 300.943 309.055 299.275 307.91C297.608 306.764 293.137 308.206 288.124 306.833C283.111 305.46 285.382 304.098 284.87 298.843C284.359 293.589 284.154 292.187 282.016 297.007C279.878 301.826 280.799 303.732 280.082 308.552C279.581 311.929 279.264 314.092 277.525 314.418C273.555 315.159 269.34 313.016 265.575 314.517C263.641 315.287 261.053 314.517 259.15 312.225C258.127 310.951 255.59 304.414 254.393 301.895C253.196 299.377 252.254 300.512 250.832 306.715C250.505 308.127 241.553 311.307 239.896 313.371C238.238 315.435 237.276 316.334 235.609 313.371C233.941 310.408 226.739 294.903 226.739 296.513C226.739 298.123 225.398 308.275 223.731 307.376C222.063 306.478 219.69 307.376 216.835 308.749C213.981 310.122 213.766 312.65 212.313 311.505C210.86 310.359 207.198 303.189 205.1 299.742C203.003 296.295 202.717 294.468 202.031 298.369C201.346 302.27 197.744 313.983 195.841 312.828C190.071 309.352 173.016 288.266 170.397 282.993C167.778 277.719 164.924 275.408 165.64 273.808C166.356 272.208 170.397 262.322 172.3 262.559C174.203 262.796 181.099 263.705 186.091 260.258C191.084 256.811 185.938 254.935 182.132 252.644C178.326 250.352 154.304 241.158 155.02 238.639C149.782 204.429 127.192 193.407 104.357 189.259C81.5218 185.111 62.7789 195.383 60.3132 193.141C59.4743 192.38 53.3153 187.363 46.7164 173.586C44.5122 169.067 41.6832 164.858 38.3067 161.073C36.1377 154.861 60.3644 141.232 67.0451 135.159C73.7259 129.085 71.3523 126.014 70.5339 117.678C69.7154 109.343 66.994 86.9441 66.2062 80.1494C65.4184 73.3547 65.4287 70.6684 68.1808 68.387C70.9329 66.1057 76.9486 61.8195 83.1178 56.6247C117.524 27.609 168.842 10.573 188.823 7.24474C197.397 5.84235 231.066 39.1047 238.207 39.1047C251.313 39.1047 264.225 34.8975 270.291 28.488C272.338 26.3054 295.367 7.91632 298.836 4.29183C302.304 0.667334 303.644 -0.0141051 308.35 0.222919C311.604 0.390811 323.369 1.13152 350.634 11.3433C377.9 21.5551 403.129 35.3123 409.636 39.6281C416.143 43.944 418.997 43.1638 423.069 47.8845C427.141 52.6052 434.231 61.4541 440.461 68.7031C446.692 75.9521 448.728 76.9298 448.472 79.8235C448.216 82.7171 448.646 113.017 447.377 129.203C447.04 133.549 446.467 144.63 448.227 143.415C449.986 142.2 452.902 139.07 454.15 140.037C455.398 141.005 479.298 159.306 479.052 160.994V160.994ZM224.897 134.981C226.237 130.754 234.217 109.303 234.555 107.052C234.893 104.8 230.514 105.422 228.836 102.509C227.158 99.5952 211.341 69.7203 209.674 66.7575C208.006 63.7947 207.627 62.8664 201.264 62.2146C194.9 61.5627 152.156 59.9431 148.462 60.2394C144.769 60.5356 144.084 59.2518 139.04 64.1305C133.996 69.0092 112.808 86.5391 110.792 88.4847C108.777 90.4303 104.654 105.708 105.779 111.288C106.905 116.868 113.483 144.65 114.823 149.518C116.164 154.387 117.176 154.397 122.558 158.94C127.939 163.483 150.478 173.873 154.171 174.85C157.864 175.828 159.225 174.524 162.919 172.579C166.612 170.633 214.625 148.086 217.991 146.783C221.357 145.479 223.547 139.198 224.897 134.981ZM273.637 191.274C272.419 187.324 270.21 186.948 269.831 180.964C269.452 174.979 264.572 163.246 262.721 153.607C261.8 148.778 263.048 149.42 255.692 146.832C251.784 145.459 250.669 145.607 249.124 148.857C245.248 157.391 240.774 165.66 235.732 173.606C231.148 180.618 229.665 174.88 229.665 183.383C229.665 192.469 231.005 219.273 232.11 223.598C233.215 227.924 235.077 226.255 238.034 225.573C240.99 224.892 240.417 225.643 247.865 229.208C250.382 230.413 251.272 228.131 253.318 223.401C256.088 217.159 258.443 210.753 260.367 204.222C262.229 197.565 263.386 231.272 265.227 231.934C267.069 232.595 269.442 231.677 271.294 224.359C273.146 217.041 274.854 195.234 273.637 191.244V191.274ZM397.042 87.5761C394.914 82.0159 372.488 72.2782 369.613 70.5993C366.738 68.9204 362.656 61.4344 362.072 60.2887C361.489 59.1431 355.699 61.0887 348.772 61.9281C341.846 62.7676 317.998 66.2538 315.103 65.9773C312.207 65.7008 309.015 67.3698 306.99 69.3351C304.964 71.3005 277.811 89.018 278.169 93.5116C278.486 97.462 282.405 136.591 282.405 137.954C282.405 139.316 284.451 141.904 288.195 144.393C291.94 146.881 314.315 161.597 321.855 162.407C333.805 163.7 366.871 163.236 371.475 163.236C376.079 163.236 375.403 161.31 378.636 153.755C381.869 146.2 397.921 111.851 399.098 109.056C400.275 106.261 402.75 104.899 404.49 102.657C406.229 100.415 399.763 94.7066 397.042 87.5465V87.5761Z" stroke="#0C0A07" stroke-width="4" mask="url(#path-1-inside-1)"/>
<path d="M713.218 207.938L670.602 235.072L584.671 237.054L580.495 65.9468L666.179 64.0007L710.35 89.1723L711.346 130.888L683.092 148.482L681.665 149.371L683.127 150.2L712.222 166.71L713.218 207.938ZM670.134 196.043L670.617 195.741L670.604 195.172L670.123 173.988L670.111 173.458L669.666 173.17L659.343 166.514L659.085 166.348L658.778 166.355L626.244 167.095L625.243 167.118L625.267 168.119L626.096 202.34L626.12 203.338L627.118 203.315L659.396 202.584L659.671 202.578L659.903 202.433L670.134 196.043ZM657.614 97.3131L657.356 97.1465L657.049 97.1535L624.535 97.8941L623.534 97.917L623.558 98.9185L624.408 133.396L624.432 134.393L625.43 134.371L657.708 133.64L657.983 133.634L658.216 133.488L668.447 127.088L668.93 126.786L668.916 126.216L668.394 104.795L668.382 104.266L667.937 103.979L657.614 97.3131Z" stroke="#0C0A07" stroke-width="2"/>
<path d="M732.217 62.4605L817.901 60.5143L862.073 85.6764L863.243 133.327L820.383 162.668L777.987 163.648L776.986 163.672L777.01 164.673L777.837 198.536L770.28 199.356L767.931 199.61L769.749 201.119L778.075 208.029L778.674 232.615L736.415 233.558L735.065 178.264L740.905 178.973L741.257 179.016L741.557 178.827L758.469 168.201L757.669 166.391L739.908 171.336L734.78 167.533L732.217 62.4605ZM809.409 93.8468L809.151 93.6799L808.843 93.6869L776.33 94.4276L775.328 94.4504L775.353 95.4516L776.192 129.929L776.216 130.927L777.214 130.904L809.492 130.173L809.767 130.167L810 130.021L820.231 123.622L820.714 123.319L820.7 122.75L820.178 101.329L820.166 100.8L819.722 100.513L809.409 93.8468Z" stroke="#0C0A07" stroke-width="2"/>
<path d="M924.266 161.668L922.289 161.675L912.111 229.57L869.874 230.531L894.509 58.7704L923.364 58.1154L943.511 123.208L944.593 126.706L945.439 123.143L961.078 57.2512L989.92 56.5965L999.07 103.509L996.124 112.365L996.027 112.657L996.111 112.952L999.896 126.364L999.932 126.49L999.999 126.603L1005.25 135.442L1004.2 151.606L1004.19 151.763L1004.23 151.915L1023.11 227.042L980.95 228.011L967.72 160.397L965.745 160.478L958.148 228.524L934.902 229.057L924.266 161.668Z" stroke="#0C0A07" stroke-width="2"/>
<path d="M1029.5 55.6982L1115.45 53.9801L1115.6 53.9772L1159.36 78.9309L1162.26 197.726L1119.63 224.86L1033.76 226.811L1036.84 169.008L1038.64 153.37L1040.95 147.568L1041.48 146.233L1040.05 146.198L1031.71 145.994L1029.5 55.6982ZM1108.42 192.116L1108.68 192.11L1108.91 191.974L1119.17 185.831L1119.67 185.532L1119.66 184.949L1117.46 94.5734L1117.44 94.0447L1117 93.7577L1106.68 87.0914L1106.42 86.9247L1106.11 86.9317L1073.57 87.6724L1072.57 87.6952L1072.59 88.6967L1075.12 191.881L1075.14 192.879L1076.14 192.856L1108.42 192.116Z" stroke="#0C0A07" stroke-width="2"/>
<path d="M1311.34 207.606L1297.24 211.062L1296.71 211.192L1296.54 211.708L1293.37 220.925L1276.16 221.311L1239.1 153.699L1238.81 153.166L1238.2 153.18L1223.88 153.506L1222.88 153.529L1222.9 154.53L1224.56 222.483L1182.31 223.426L1178.13 52.3082L1263.81 50.362L1307.99 75.5338L1309.15 123.171L1278.33 144.079L1277.59 144.584L1278.01 145.378L1311.34 207.606ZM1255.37 120.031L1255.65 120.025L1255.88 119.877L1266.06 113.468L1266.54 113.165L1266.53 112.597L1266.01 91.1762L1266 90.6474L1265.55 90.3605L1255.23 83.6942L1254.97 83.5275L1254.66 83.5345L1222.13 84.2752L1221.13 84.298L1221.15 85.2993L1221.99 119.776L1222.02 120.774L1223.01 120.752L1225.81 120.689L1232.7 124.462L1234.68 140.614L1236.67 140.647L1238.71 127.626L1245.83 120.249L1255.37 120.031Z" stroke="#0C0A07" stroke-width="2"/>
<path d="M1458.49 190.967L1415.86 218.102L1373.19 219.082L1329.3 194.17L1326.39 75.1338L1369.28 48.2261L1411.42 47.2512L1455.58 72.169L1458.49 190.967ZM1420.4 116.321L1420.41 116.306L1420.42 116.29L1427.03 102.75L1428.34 100.055L1425.67 101.421L1414.2 107.293L1413.72 87.858L1413.71 87.3288L1413.27 87.0419L1402.94 80.3855L1402.69 80.2192L1402.38 80.2261L1379.99 80.7298L1379.69 80.7368L1379.43 80.9158L1369.45 88.0462L1369.02 88.3544L1369.03 88.8845L1371.24 179.25L1371.26 179.831L1371.77 180.106L1382.23 185.735L1392.07 194.052L1392.67 194.565L1393.31 194.091L1405.22 185.232L1415.41 179.115L1415.91 178.815L1415.89 178.233L1414.64 127.14L1420.4 116.321Z" stroke="#0C0A07" stroke-width="2"/>
<path d="M1523.34 147.676L1524.97 215.609L1482.73 216.552L1480.57 128.223L1490.02 110.202L1490.21 109.843L1490.1 109.454L1485.66 94.4619L1485.08 92.5256L1483.89 94.1554L1479.84 99.6842L1478.53 45.4639L1564.21 43.5178L1608.38 68.6895L1609.54 116.34L1566.7 145.671L1524.32 146.652L1523.32 146.675L1523.34 147.676ZM1555.77 113.187L1556.05 113.18L1556.28 113.035L1566.54 106.636L1567.02 106.334L1567.01 105.763L1566.49 84.3418L1566.48 83.8131L1566.03 83.5261L1555.71 76.8598L1555.45 76.6931L1555.14 76.7001L1522.6 77.4408L1521.6 77.4636L1521.62 78.4652L1522.47 112.942L1522.48 113.085L1522.52 113.221L1526.26 124.993L1526.71 126.404L1527.85 125.461L1542.34 113.495L1555.77 113.187Z" stroke="#0C0A07" stroke-width="2"/>
<path d="M582.154 409.707L582.244 409.767L582.345 409.806L589.973 412.733L589.3 439.057L547.041 438.057L547.89 404.839L575.774 405.509L582.154 409.707Z" stroke="#0C0A07" stroke-width="2"/>
<path d="M698.855 337.441L699.526 311.115L699.539 310.585L699.108 310.276L689.697 303.54L695.338 282.661L696.297 279.108L693.672 281.686L680.024 295.088L680.003 295.108L679.983 295.13L673.231 302.583L666.19 302.416L665.883 302.409L665.624 302.575L655.291 309.232L654.847 309.518L654.833 310.047L652.531 400.412L652.516 400.995L653.016 401.295L663.278 407.458L663.504 407.594L663.769 407.6L685.632 408.114L685.896 408.12L686.128 407.995L696.696 402.336L697.209 402.062L697.224 401.48L697.914 374.411L740.163 375.41L739.119 416.448L695.174 441.331L652.522 440.315L609.928 413.377L612.954 294.536L630.005 290.113L630.472 289.992L630.668 289.552L635.444 278.82L656.844 269.213L699.289 270.218L742.149 297.409L741.104 338.45L698.855 337.441Z" stroke="#0C0A07" stroke-width="2"/>
<path d="M802.68 443.88L760.086 416.942L763.127 297.915L807.347 273.026L849.48 274.03L892.348 300.977L890.502 373.361L884.653 374.164L884.293 374.214L884.048 374.483L874.196 385.347L875.391 386.909L885.262 381.873L890.2 385.189L889.318 419.729L845.37 444.861L802.68 443.88ZM846.886 405.901L847.398 405.626L847.413 405.046L849.756 314.681L849.769 314.15L849.338 313.841L839.352 306.701L839.102 306.522L838.794 306.515L816.409 305.981L816.102 305.974L815.844 306.141L805.521 312.797L805.076 313.083L805.063 313.612L802.761 403.977L802.746 404.559L803.245 404.859L813.476 411.022L813.703 411.159L813.968 411.165L835.831 411.689L836.095 411.695L836.328 411.57L846.886 405.901Z" stroke="#0C0A07" stroke-width="2"/>
<path d="M1052.46 449.817L1010.23 448.818L1000.4 380.671L998.419 380.654L987.438 448.274L964.192 447.723L956.919 379.927L954.945 379.836L941.391 447.178L899.165 446.179L913.083 374.673L924.819 366.352L925.018 366.21L925.129 365.993L931.063 354.458L929.517 353.247L921.652 360.105L915.935 360.012L932.345 275.756L961.2 276.439L978.057 342.387L978.964 345.935L979.987 342.419L998.903 277.334L1027.75 278.026L1052.46 449.817Z" stroke="#0C0A07" stroke-width="2"/>
</svg>
