<svg width="662" height="285" viewBox="0 0 662 285" fill="none" xmlns="http://www.w3.org/2000/svg">
<path d="M641.47 152.396C669.871 203.106 666.932 285.922 644.119 339.249C638.822 351.652 604.238 353.285 584.775 387.994C565.311 422.703 579.65 458.049 574.076 463.919C533.203 507.037 475.832 542.69 413.601 552.975C400.043 555.221 379.176 528.603 338.978 528.603C285.327 528.603 263.573 563.056 250.187 558.603C209.671 545.102 137.364 525.795 90.678 471.423C82.5881 462.005 105.243 432.056 81.9261 392.677C58.6095 353.298 15.6573 345.208 11.897 331.745C-5.42163 269.882 -1.21115 187.398 8.00425 154.578C12.5325 151.375 18.1465 145.033 19.3779 146.168C31.5724 156.926 55.0213 191.354 53.9488 192.732C42.5488 207.33 37.1466 231.907 37.1466 246.543C37.1501 268.519 46.2107 289.593 62.3354 305.131C78.4602 320.669 100.328 329.397 123.131 329.397C146.288 329.397 172.372 319.763 184.712 305.459C187.162 302.613 193.279 298.262 193.888 300.01C194.497 301.758 215.655 328.249 217.416 330.788C219.177 333.328 211.034 338.126 209.353 338.445C190.737 342.362 173.995 352.122 161.754 366.195C149.513 380.269 142.464 397.859 141.713 416.209C140.962 434.559 146.55 452.63 157.602 467.589C168.655 482.548 184.546 493.55 202.784 498.868C221.022 504.187 240.576 503.522 258.379 496.978C276.183 490.434 291.23 478.38 301.161 462.707C311.091 447.034 315.344 428.628 313.253 410.375C311.161 392.122 302.844 375.054 289.604 361.848C290.133 359.5 291.272 355.467 293.165 355.467C314.046 355.467 351.066 356.041 368.914 357.228C369.815 357.228 369.987 360.036 371.139 364.081C361.818 374.071 355.159 386.096 351.737 399.12C348.314 412.143 348.231 425.773 351.493 438.835C354.755 451.896 361.266 463.997 370.463 474.093C379.66 484.188 391.268 491.976 404.285 496.784C417.301 501.592 431.336 503.276 445.179 501.69C459.021 500.105 472.256 495.297 483.741 487.683C495.225 480.069 504.616 469.876 511.101 457.984C517.587 446.092 520.974 432.858 520.969 419.423C520.969 381.052 486.967 341.009 449.84 339.3C449.231 339.3 446.769 335.956 447.484 334.897C453.468 326.041 462.935 313.204 468.748 303.966C469.273 302.846 470.116 301.892 471.179 301.214C472.243 300.537 473.484 300.163 474.759 300.137C487.496 320.261 513.488 329.385 538.592 329.385C555.133 329.404 571.329 324.819 585.232 316.18C599.135 307.542 610.153 295.217 616.962 280.688C623.771 266.159 626.081 250.044 623.615 234.28C621.149 218.516 614.011 203.774 603.06 191.826C617.386 180.073 626.853 163.855 641.47 152.396ZM619.226 129.784C618.895 131.979 610.726 146.041 598.531 158.852C595.274 162.272 589.396 168.499 587.131 171.613C584.867 174.727 585.807 175.058 581.941 173.183C578.075 171.307 554.639 160.894 550.164 161.213C545.689 161.532 515.143 162.489 508.337 166.522C501.531 170.554 463.571 193.931 457.189 200.503C452.872 204.944 453.217 200.209 452.528 212.664C451.84 225.118 450.449 240.737 450.449 246.645C450.449 252.553 451.681 252.285 448.9 254.301C446.12 256.318 435.66 259.635 430.125 258.742C428.801 258.538 428.205 258.398 427.941 258.334C430.351 259.072 432.543 260.354 434.336 262.073C438.639 266.22 441.724 269.193 441.419 270.673C441.115 272.154 440.493 273.34 436.799 282.834C433.104 292.328 420.486 311.009 416.792 316.65C414.872 319.585 413.72 320.797 411.496 318.13C409.271 315.463 405.034 310.116 403.181 303.889C401.327 297.662 395.488 291.128 395.793 296.769C396.097 302.409 392.099 309.529 390.867 313.676C389.636 317.824 388.722 321.09 386.564 319.61C384.406 318.13 378.62 319.993 372.132 318.219C365.644 316.445 368.583 314.684 367.921 307.896C367.259 301.107 366.995 299.295 364.227 305.522C361.46 311.75 362.652 314.212 361.725 320.439C361.076 324.804 360.665 327.598 358.415 328.019C353.277 328.976 347.822 326.207 342.95 328.147C340.447 329.142 337.097 328.147 334.635 325.186C333.311 323.54 330.027 315.093 328.478 311.839C326.929 308.585 325.711 310.052 323.87 318.066C323.446 319.891 311.861 324 309.716 326.667C307.571 329.334 306.326 330.495 304.168 326.667C302.01 322.839 292.689 302.804 292.689 304.884C292.689 306.964 290.954 320.082 288.796 318.921C286.638 317.76 283.566 318.921 279.872 320.695C276.178 322.468 275.9 325.735 274.02 324.255C272.139 322.775 267.399 313.51 264.685 309.057C261.971 304.604 261.6 302.243 260.713 307.283C259.826 312.324 255.165 327.458 252.702 325.965C245.235 321.473 223.163 294.229 219.773 287.415C216.384 280.601 212.689 277.615 213.616 275.548C214.543 273.481 219.773 260.707 222.236 261.014C224.699 261.32 233.623 262.494 240.084 258.04C246.545 253.587 239.885 251.162 234.96 248.202C230.035 245.241 198.946 233.361 199.873 230.107C193.093 185.905 163.858 171.664 134.306 166.305C104.753 160.945 80.4961 174.216 77.3051 171.32C76.2194 170.337 68.2486 163.855 59.7085 146.054C56.8559 140.215 53.1946 134.776 48.8248 129.886C46.0178 121.86 77.3713 104.25 86.0174 96.4022C94.6634 88.5545 91.5917 84.5859 90.5324 73.816C89.4732 63.0461 85.9512 34.1051 84.9317 25.3259C83.9121 16.5466 83.9254 13.0757 87.4871 10.128C91.0488 7.18032 98.8342 1.64223 106.818 -5.06982C151.346 -42.5604 217.761 -64.5723 243.619 -68.8727C254.715 -70.6847 298.289 -27.7071 307.531 -27.7071C324.492 -27.7071 341.202 -33.1431 349.054 -41.4247C351.702 -44.2448 381.506 -68.0049 385.995 -72.6881C390.483 -77.3712 392.218 -78.2517 398.308 -77.9454C402.519 -77.7285 417.745 -76.7714 453.031 -63.577C488.317 -50.3826 520.969 -32.6071 529.389 -27.0308C537.81 -21.4544 541.505 -22.4624 546.774 -16.3629C552.044 -10.2633 561.22 1.1701 569.283 10.5364C577.347 19.9026 579.981 21.1659 579.65 24.9048C579.319 28.6436 579.876 67.793 578.234 88.7076C577.797 94.3223 577.055 108.64 579.333 107.07C581.61 105.5 585.384 101.455 586.999 102.706C588.614 103.956 619.544 127.602 619.226 129.784ZM290.305 96.1725C292.04 90.711 302.367 62.995 302.804 60.0856C303.241 57.1762 297.574 57.9802 295.403 54.2158C293.232 50.4514 272.762 11.8507 270.603 8.02253C268.445 4.19436 267.955 2.99486 259.72 2.15266C251.484 1.31046 196.165 -0.782272 191.385 -0.399452C186.606 -0.0166397 185.719 -1.67551 179.191 4.62821C172.663 10.9319 145.242 33.5819 142.634 36.0958C140.025 38.6096 134.69 58.3502 136.146 65.5599C137.602 72.7696 146.116 108.665 147.851 114.956C149.585 121.247 150.896 121.26 157.86 127.13C164.825 133 193.994 146.424 198.774 147.687C203.553 148.95 205.314 147.266 210.094 144.752C214.874 142.238 277.012 113.106 281.368 111.421C285.724 109.737 288.558 101.621 290.305 96.1725ZM353.383 168.908C351.808 163.804 348.948 163.319 348.458 155.586C347.968 147.853 341.652 132.693 339.256 120.239C338.064 113.999 339.679 114.828 330.159 111.485C325.101 109.711 323.658 109.903 321.659 114.101C316.644 125.128 310.853 135.812 304.327 146.079C298.395 155.139 296.475 147.725 296.475 158.712C296.475 170.452 298.21 205.084 299.64 210.673C301.07 216.262 303.48 214.106 307.306 213.225C311.133 212.345 310.391 213.315 320.03 217.921C323.288 219.478 324.439 216.53 327.088 210.418C330.672 202.353 333.719 194.076 336.21 185.637C338.62 177.036 340.116 220.588 342.499 221.443C344.883 222.298 347.955 221.111 350.351 211.656C352.748 202.2 354.959 174.025 353.383 168.869V168.908ZM513.09 34.9218C510.336 27.7376 481.313 15.1557 477.593 12.9864C473.872 10.8171 468.589 1.1446 467.834 -0.335625C467.08 -1.81586 459.585 0.697945 450.622 1.78259C441.658 2.86724 410.794 7.37173 407.047 7.01443C403.3 6.65714 399.169 8.81366 396.547 11.353C393.926 13.8924 358.785 36.7848 359.249 42.5909C359.659 47.6951 364.73 98.2525 364.73 100.013C364.73 101.774 367.378 105.118 372.224 108.333C377.07 111.549 406.028 130.562 415.786 131.609C431.251 133.28 474.044 132.681 480.002 132.681C485.961 132.681 485.087 130.192 489.271 120.43C493.455 110.669 514.229 66.2873 515.752 62.676C517.274 59.0648 520.479 57.3038 522.729 54.4072C524.98 51.5105 516.612 44.1349 513.09 34.8835V34.9218Z" fill="#FFC632"/>
</svg>
