<svg width="1920" height="1165" viewBox="0 0 1920 1165" fill="none" xmlns="http://www.w3.org/2000/svg">
<g filter="url(#filter0_d)">
<path d="M6.01233 1152.6C20.9516 1137.11 40.0243 1133.83 54.4103 1116.73C59.8782 1110.2 65.574 1100.02 72.6043 1095.1C85.6232 1086.01 84.2237 1092.12 94.4761 1102.58C114.46 1122.95 138.578 1103.34 159.766 1105.58C160.43 1107.31 161.52 1108.81 162.92 1109.92C164.32 1111.03 165.976 1111.7 167.708 1111.87C177.147 1113.17 176.463 1107.26 182.745 1105.76C193.127 1103.31 203.803 1104.11 214.641 1104.18C225.479 1104.25 237.424 1102.4 248.165 1104.18C263.788 1106.56 265.317 1118.62 282.925 1118.97C305.969 1119.39 328.687 1102.54 341.511 1082.79C345.579 1076.5 353 1061.01 361.56 1060.59C370.12 1060.18 381.804 1078.39 389.746 1081.36C400.161 1085.31 411.846 1079.12 421.968 1082.44C430.528 1085.27 432.839 1093.91 439.869 1099.08C449.113 1106.07 456.826 1104.46 468.381 1104.32C474.239 1104.32 483.092 1102.47 488.755 1103.94C494.418 1105.41 495.265 1110.27 501.416 1111.84C518.308 1116.24 550.433 1113.83 567.032 1109.88C578.781 1107.08 577.414 1103.73 590.173 1109.71C600.881 1114.74 604.201 1120.93 613.444 1127.74C621.809 1133.93 631.313 1134.73 642.119 1133.13C658.978 1130.5 654.552 1122.64 667.017 1110.93C675.628 1103.09 685.159 1096.5 695.366 1091.32C703.568 1087.55 707.409 1088.73 715.35 1083.18C721.86 1078.56 726.774 1070.87 733.902 1066.33C740.918 1062.35 747.566 1057.67 753.756 1052.35C757.499 1048.85 765.994 1034.55 770.03 1033.58C800.234 1026.23 803.879 1103.48 833.985 1103.48C843.75 1076.85 894.003 1093.28 915.712 1090.2C921.473 1089.4 926.518 1085.24 930.423 1084.5C942.01 1082.27 944.581 1085.17 955.615 1088.42C970.782 1092.89 983.866 1085.24 990.831 1069.44C998.089 1072.06 1000.6 1080.48 1008.7 1083.21C1013.6 1084.5 1018.69 1084.68 1023.66 1083.75C1028.63 1082.82 1033.37 1080.79 1037.57 1077.79C1057.78 1062.66 1063.25 1027.77 1089.19 1019.8C1099.21 1016.69 1111.97 1022.28 1121.22 1016.9C1123.36 1014.45 1125.41 1011.87 1127.37 1009.21C1133.88 1005.4 1135.63 1006.52 1142.57 1004C1148.46 1001.87 1162.1 995.3 1167.63 997.886C1174.14 1000.93 1172.84 1009.35 1182.44 1011.87C1188.75 1013.44 1195 1010.44 1201.67 1012.36C1202.62 1024.42 1207.21 1050.81 1220.88 1053.08C1229.08 1039.52 1240.08 1048.64 1247.7 1056.12C1258.53 1066.78 1260.52 1068.88 1276.11 1068.63C1288.25 1068.46 1304.75 1065.52 1316.47 1068.29C1332.74 1072.1 1335.35 1082.27 1341.01 1097.33C1346.67 1112.4 1352.11 1126.97 1364.74 1112.01C1370.11 1105.65 1369.32 1101.07 1376.06 1095.41C1381.07 1091.18 1386.64 1089.99 1391.39 1084.92C1401.68 1073.95 1429.86 1015.01 1444.8 1053.46C1455.15 1047.52 1471.3 1039.83 1482.88 1041.37C1492.03 1042.59 1499.48 1046.68 1509.73 1047.07C1521.26 1047.52 1525.62 1045.15 1534.76 1041.02C1541.6 1049.72 1552.44 1059.51 1562.79 1061.99C1568.68 1063.36 1576.39 1058.25 1581.86 1062.66C1589.61 1068.95 1585.67 1079.86 1596.18 1083.63C1601 1085.34 1609.62 1083.63 1615.09 1084.68C1622.28 1086.25 1626.61 1090.59 1636.6 1090.24C1649.33 1089.82 1649.62 1090.41 1658.25 1097.23C1664.24 1101.84 1668.01 1108.59 1674.81 1111C1682.79 1094.92 1694.08 1081.11 1708.4 1074.12C1713.12 1071.85 1725.2 1070.63 1728.75 1067.66C1733.86 1063.36 1737.34 1051.16 1741.76 1045.25C1756.28 1025.78 1763.99 1039.34 1783.46 1040.22C1792.73 1040.64 1798.07 1044.1 1804.97 1045.6C1813.11 1047.38 1821.25 1046.02 1829.22 1048.26C1829.87 1054.83 1830.52 1061.08 1831.17 1067.66C1851.71 1069.79 1862.52 1083.56 1883.61 1083C1896.92 1082.65 1906.39 1086.08 1917 1088.28V0H1V1157C2.75267 1155.64 4.42658 1154.17 6.01233 1152.6Z" fill="url(#paint0_linear)"/>
</g>
<defs>
<filter id="filter0_d" x="-3" y="0" width="1924" height="1165" filterUnits="userSpaceOnUse" color-interpolation-filters="sRGB">
<feFlood flood-opacity="0" result="BackgroundImageFix"/>
<feColorMatrix in="SourceAlpha" type="matrix" values="0 0 0 0 0 0 0 0 0 0 0 0 0 0 0 0 0 0 127 0" result="hardAlpha"/>
<feOffset dy="4"/>
<feGaussianBlur stdDeviation="2"/>
<feColorMatrix type="matrix" values="0 0 0 0 0 0 0 0 0 0 0 0 0 0 0 0 0 0 0.25 0"/>
<feBlend mode="normal" in2="BackgroundImageFix" result="effect1_dropShadow"/>
<feBlend mode="normal" in="SourceGraphic" in2="effect1_dropShadow" result="shape"/>
</filter>
<linearGradient id="paint0_linear" x1="959" y1="0" x2="959" y2="1157" gradientUnits="userSpaceOnUse">
<stop stop-color="#0C0C0C"/>
<stop offset="1" stop-color="#070707"/>
</linearGradient>
</defs>
</svg>
