<svg width="56" height="40" viewBox="0 0 56 40" fill="none" xmlns="http://www.w3.org/2000/svg">
<path d="M51.0781 0.453186H4.92188C2.20248 0.453186 0 2.6714 0 5.37962V34.9382C0 37.6626 2.21867 39.8647 4.92188 39.8647H51.0781C53.7748 39.8647 56 37.6719 56 34.9382V5.37962C56 2.67621 53.8063 0.453186 51.0781 0.453186ZM50.3888 3.73748C49.3833 4.73864 32.0778 21.9689 31.4803 22.5638C30.5506 23.4944 29.3147 24.0067 28 24.0067C26.6853 24.0067 25.4494 23.4942 24.5166 22.5607C24.1148 22.1606 7.00033 5.1206 5.61116 3.73748H50.3888ZM3.28125 34.2698V6.05017L17.4604 20.1677L3.28125 34.2698ZM5.61323 36.5804L19.7868 22.4839L22.1995 24.8861C23.7489 26.437 25.8089 27.291 28 27.291C30.1911 27.291 32.2511 26.437 33.7974 24.8892L36.2132 22.4839L50.3868 36.5804H5.61323ZM52.7188 34.2698L38.5396 20.1677L52.7188 6.05017V34.2698Z" fill="black"/>
</svg>
