<svg width="198" height="198" viewBox="0 0 198 198" fill="none" xmlns="http://www.w3.org/2000/svg">
<path d="M173.253 89.7006C171.543 89.7006 170.159 88.3169 170.159 86.6069V46.3881C170.159 44.6766 171.543 43.2944 173.253 43.2944C174.964 43.2944 176.347 44.6766 176.347 46.3881V86.6069C176.347 88.3169 174.964 89.7006 173.253 89.7006Z" fill="white"/>
<path d="M182.531 89.7006H173.253C171.543 89.7006 170.159 88.3169 170.159 86.6069C170.159 84.8953 171.543 83.5131 173.253 83.5131H182.531C184.243 83.5131 185.625 84.8953 185.625 86.6069C185.625 88.3169 184.243 89.7006 182.531 89.7006Z" fill="white"/>
<path d="M182.531 49.4819H173.253C171.543 49.4819 170.159 48.0981 170.159 46.3881C170.159 44.6766 171.543 43.2944 173.253 43.2944H182.531C184.243 43.2944 185.625 44.6766 185.625 46.3881C185.625 48.0981 184.243 49.4819 182.531 49.4819Z" fill="white"/>
<path d="M182.531 95.8881C180.82 95.8881 179.438 94.5044 179.438 92.7944V40.2006C179.438 38.4891 180.82 37.1069 182.531 37.1069C184.243 37.1069 185.625 38.4891 185.625 40.2006V92.7944C185.625 94.5044 184.243 95.8881 182.531 95.8881Z" fill="white"/>
<path d="M194.906 95.8881H182.531C180.82 95.8881 179.438 94.5044 179.438 92.7944C179.438 91.0828 180.82 89.7006 182.531 89.7006H194.906C196.618 89.7006 198 91.0828 198 92.7944C198 94.5044 196.618 95.8881 194.906 95.8881Z" fill="white"/>
<path d="M194.906 43.2944H182.531C180.82 43.2944 179.438 41.9106 179.438 40.2006C179.438 38.4891 180.82 37.1069 182.531 37.1069H194.906C196.618 37.1069 198 38.4891 198 40.2006C198 41.9106 196.618 43.2944 194.906 43.2944Z" fill="white"/>
<path d="M112.972 49.4758C107 49.4758 102.146 44.6207 102.146 38.6537C102.146 32.6823 107 27.8256 112.972 27.8256C114.682 27.8256 116.065 29.2078 116.065 30.9194C116.065 32.6294 114.682 34.0131 112.972 34.0131C110.416 34.0131 108.334 36.0948 108.334 38.6537C108.334 41.2082 110.416 43.2883 112.972 43.2883C114.682 43.2883 116.065 44.6705 116.065 46.3821C116.065 48.0921 114.679 49.4758 112.972 49.4758Z" fill="white"/>
<path d="M112.972 64.9446C107 64.9446 102.146 60.0894 102.146 54.1225C102.146 48.151 107 43.2944 112.972 43.2944C114.682 43.2944 116.065 44.6766 116.065 46.3881C116.065 48.0981 114.682 49.4819 112.972 49.4819C110.416 49.4819 108.334 51.5635 108.334 54.1225C108.334 56.677 110.416 58.7571 112.972 58.7571C114.682 58.7571 116.065 60.1393 116.065 61.8508C116.065 63.5609 114.679 64.9446 112.972 64.9446Z" fill="white"/>
<path d="M112.972 80.4133C107 80.4133 102.146 75.5582 102.146 69.5912C102.146 63.6198 107 58.7631 112.972 58.7631C114.682 58.7631 116.065 60.1453 116.065 61.8569C116.065 63.5669 114.682 64.9506 112.972 64.9506C110.416 64.9506 108.334 67.0323 108.334 69.5912C108.334 72.1457 110.416 74.2258 112.972 74.2258C114.682 74.2258 116.065 75.608 116.065 77.3196C116.065 79.0296 114.679 80.4133 112.972 80.4133Z" fill="white"/>
<path d="M112.972 95.8821C107 95.8821 102.146 91.0269 102.146 85.06C102.146 79.0885 107 74.2319 112.972 74.2319C114.682 74.2319 116.065 75.6141 116.065 77.3256C116.065 79.0356 114.682 80.4194 112.972 80.4194C110.416 80.4194 108.334 82.501 108.334 85.06C108.334 87.6145 110.416 89.6946 112.972 89.6946C114.682 89.6946 116.065 91.0768 116.065 92.7883C116.065 94.4984 114.679 95.8821 112.972 95.8821Z" fill="white"/>
<path d="M173.303 52.5756H164.019C162.307 52.5756 160.925 51.1919 160.925 49.4819C160.925 47.7703 162.307 46.3881 164.019 46.3881H173.303C175.013 46.3881 176.397 47.7703 176.397 49.4819C176.397 51.1919 175.01 52.5756 173.303 52.5756Z" fill="white"/>
<path d="M173.303 86.6069H167.115C165.404 86.6069 164.021 85.2231 164.021 83.5131C164.021 81.8016 165.404 80.4194 167.115 80.4194H173.303C175.013 80.4194 176.396 81.8016 176.396 83.5131C176.396 85.2231 175.01 86.6069 173.303 86.6069Z" fill="white"/>
<path d="M164.019 52.5756C162.818 52.5756 161.676 51.8732 161.176 50.7009L151.904 29.0447C151.228 27.4721 151.959 25.6533 153.527 24.9826C155.086 24.2983 156.916 25.034 157.589 26.6065L166.862 48.2628C167.535 49.8338 166.806 51.6526 165.238 52.3249C164.837 52.4986 164.424 52.5756 164.019 52.5756Z" fill="white"/>
<path d="M139.269 34.0131H112.972C111.26 34.0131 109.878 32.6294 109.878 30.9194C109.878 29.2078 111.26 27.8256 112.972 27.8256H139.269C140.979 27.8256 142.362 29.2078 142.362 30.9194C142.362 32.6294 140.976 34.0131 139.269 34.0131Z" fill="white"/>
<path d="M151.647 95.8881H112.972C111.26 95.8881 109.878 94.5044 109.878 92.7944C109.878 91.0828 111.26 89.7006 112.972 89.7006H151.647C153.357 89.7006 154.74 91.0828 154.74 92.7944C154.74 94.5044 153.354 95.8881 151.647 95.8881Z" fill="white"/>
<path d="M151.65 95.8881C150.598 95.8881 149.574 95.3519 148.996 94.3866C148.116 92.9213 148.589 91.0209 150.056 90.1432L165.525 80.862C166.995 79.9798 168.891 80.4556 169.77 81.9224C170.649 83.3893 170.175 85.2881 168.709 86.1673L153.241 95.4485C152.739 95.7461 152.188 95.8881 151.65 95.8881Z" fill="white"/>
<path d="M24.7471 89.7188C23.0355 89.7188 21.6533 88.3365 21.6533 86.625V46.4062C21.6533 44.6947 23.0355 43.3125 24.7471 43.3125C26.4571 43.3125 27.8408 44.6947 27.8408 46.4062V86.625C27.8408 88.3365 26.4571 89.7188 24.7471 89.7188Z" fill="white"/>
<path d="M24.747 89.7188H15.4688C13.7572 89.7188 12.375 88.3365 12.375 86.625C12.375 84.9135 13.7572 83.5312 15.4688 83.5312H24.747C26.457 83.5312 27.8407 84.9135 27.8407 86.625C27.8407 88.3365 26.457 89.7188 24.747 89.7188Z" fill="white"/>
<path d="M24.747 49.5H15.4688C13.7572 49.5 12.375 48.1178 12.375 46.4062C12.375 44.6947 13.7572 43.3125 15.4688 43.3125H24.747C26.457 43.3125 27.8407 44.6947 27.8407 46.4062C27.8407 48.1178 26.457 49.5 24.747 49.5Z" fill="white"/>
<path d="M15.4688 95.9062C13.7572 95.9062 12.375 94.524 12.375 92.8125V40.2188C12.375 38.5072 13.7572 37.125 15.4688 37.125C17.1803 37.125 18.5625 38.5072 18.5625 40.2188V92.8125C18.5625 94.524 17.1803 95.9062 15.4688 95.9062Z" fill="white"/>
<path d="M15.4688 95.9062H3.09375C1.38222 95.9062 0 94.524 0 92.8125C0 91.101 1.38222 89.7188 3.09375 89.7188H15.4688C17.1803 89.7188 18.5625 91.101 18.5625 92.8125C18.5625 94.524 17.1803 95.9062 15.4688 95.9062Z" fill="white"/>
<path d="M15.4688 43.3125H3.09375C1.38222 43.3125 0 41.9303 0 40.2188C0 38.5072 1.38222 37.125 3.09375 37.125H15.4688C17.1803 37.125 18.5625 38.5072 18.5625 40.2188C18.5625 41.9303 17.1803 43.3125 15.4688 43.3125Z" fill="white"/>
<path d="M85.0781 49.494C83.3666 49.494 81.9844 48.1102 81.9844 46.4002C81.9844 44.6887 83.3666 43.3065 85.0781 43.3065C87.6341 43.3065 89.7157 41.2278 89.7157 38.6719C89.7157 36.1129 87.6341 34.0312 85.0781 34.0312C83.3666 34.0312 81.9844 32.649 81.9844 30.9375C81.9844 29.226 83.3666 27.8438 85.0781 27.8438C91.0496 27.8438 95.9032 32.7004 95.9032 38.6719C95.9032 44.6403 91.0496 49.494 85.0781 49.494Z" fill="white"/>
<path d="M85.0781 64.9627C83.3666 64.9627 81.9844 63.579 81.9844 61.869C81.9844 60.1574 83.3666 58.7752 85.0781 58.7752C87.6341 58.7752 89.7157 56.6966 89.7157 54.1406C89.7157 51.5816 87.6341 49.5 85.0781 49.5C83.3666 49.5 81.9844 48.1178 81.9844 46.4062C81.9844 44.6947 83.3666 43.3125 85.0781 43.3125C91.0496 43.3125 95.9032 48.1691 95.9032 54.1406C95.9032 60.1091 91.0496 64.9627 85.0781 64.9627Z" fill="white"/>
<path d="M85.0781 80.4315C83.3666 80.4315 81.9844 79.0477 81.9844 77.3377C81.9844 75.6262 83.3666 74.244 85.0781 74.244C87.6341 74.244 89.7157 72.1653 89.7157 69.6094C89.7157 67.0504 87.6341 64.9688 85.0781 64.9688C83.3666 64.9688 81.9844 63.5865 81.9844 61.875C81.9844 60.1635 83.3666 58.7812 85.0781 58.7812C91.0496 58.7812 95.9032 63.6379 95.9032 69.6094C95.9032 75.5778 91.0496 80.4315 85.0781 80.4315Z" fill="white"/>
<path d="M85.0781 95.9002C83.3666 95.9002 81.9844 94.5165 81.9844 92.8065C81.9844 91.0949 83.3666 89.7127 85.0781 89.7127C87.6341 89.7127 89.7157 87.6341 89.7157 85.0781C89.7157 82.5191 87.6341 80.4375 85.0781 80.4375C83.3666 80.4375 81.9844 79.0553 81.9844 77.3438C81.9844 75.6322 83.3666 74.25 85.0781 74.25C91.0496 74.25 95.9032 79.1066 95.9032 85.0781C95.9032 91.0466 91.0496 95.9002 85.0781 95.9002Z" fill="white"/>
<path d="M30.9346 52.5938H24.7471C23.0355 52.5938 21.6533 51.2115 21.6533 49.5C21.6533 47.7885 23.0355 46.4062 24.7471 46.4062H30.9346C32.6446 46.4062 34.0283 47.7885 34.0283 49.5C34.0283 51.2115 32.6446 52.5938 30.9346 52.5938Z" fill="white"/>
<path d="M30.9346 86.625H24.7471C23.0355 86.625 21.6533 85.2428 21.6533 83.5312C21.6533 81.8197 23.0355 80.4375 24.7471 80.4375H30.9346C32.6446 80.4375 34.0283 81.8197 34.0283 83.5312C34.0283 85.2428 32.6446 86.625 30.9346 86.625Z" fill="white"/>
<path d="M30.9342 52.5938C30.1427 52.5938 29.3496 52.2901 28.7469 51.6874C27.5369 50.4774 27.5369 48.5226 28.7469 47.3126L47.3094 28.7501C48.5194 27.5401 50.4741 27.5401 51.6841 28.7501C52.8941 29.9601 52.8941 31.9149 51.6841 33.1249L33.1216 51.6874C32.5189 52.2901 31.7258 52.5938 30.9342 52.5938Z" fill="white"/>
<path d="M85.0782 34.0312H49.4971C47.7855 34.0312 46.4033 32.649 46.4033 30.9375C46.4033 29.226 47.7855 27.8438 49.4971 27.8438H85.0782C86.7897 27.8438 88.172 29.226 88.172 30.9375C88.172 32.649 86.7897 34.0312 85.0782 34.0312Z" fill="white"/>
<path d="M85.0782 95.9062H46.4033C44.6918 95.9062 43.3096 94.524 43.3096 92.8125C43.3096 91.101 44.6918 89.7188 46.4033 89.7188H85.0782C86.7897 89.7188 88.172 91.101 88.172 92.8125C88.172 94.524 86.7897 95.9062 85.0782 95.9062Z" fill="white"/>
<path d="M46.4002 95.9063C45.8594 95.9063 45.3081 95.7643 44.8095 95.4636L29.3408 86.1824C27.874 85.3047 27.4012 83.4044 28.2803 81.9375C29.158 80.4722 31.0584 79.9949 32.5252 80.8771L47.9939 90.1583C49.4592 91.036 49.9336 92.9364 49.0544 94.4032C48.4758 95.3715 47.4516 95.9063 46.4002 95.9063Z" fill="white"/>
<path d="M58.7783 34.0312C57.5532 34.0312 56.39 33.2986 55.9036 32.0856L49.7161 16.6168C49.0831 15.0292 49.8565 13.2285 51.4427 12.594C53.0183 11.9581 54.831 12.7315 55.4655 14.3207L61.653 29.7894C62.2859 31.3771 61.5125 33.1777 59.9263 33.8122C59.5517 33.9633 59.162 34.0312 58.7783 34.0312Z" fill="white"/>
<path d="M77.3408 34.0312C76.9571 34.0312 76.5673 33.9633 76.1927 33.8122C74.6065 33.1777 73.8331 31.3771 74.4661 29.7894L80.6536 14.3207C81.288 12.727 83.1008 11.9581 84.6763 12.594C86.2625 13.2285 87.0359 15.0292 86.403 16.6168L80.2155 32.0856C79.7291 33.2986 78.5689 34.0312 77.3408 34.0312Z" fill="white"/>
<path d="M74.8315 19.9236C72.1184 19.9236 69.2195 19.5066 66.6726 18.2347C62.5365 16.1621 55.8082 17.6531 53.568 18.4024C51.935 18.9462 50.1963 18.067 49.654 16.4461C49.1132 14.8252 49.9893 13.0714 51.6102 12.5321C52.0392 12.3871 62.1876 9.0743 69.4416 12.6998C73.5822 14.7724 80.3075 13.2814 82.5477 12.5321C84.1837 11.9883 85.9194 12.8675 86.4602 14.4884C87.0025 16.1093 86.1264 17.8631 84.5055 18.4024C84.2305 18.4975 79.8558 19.9236 74.8315 19.9236Z" fill="white"/>
<path d="M68.0596 194.906C39.0587 194.906 15.4658 171.313 15.4658 142.312C15.4658 122.974 26.161 104.993 46.3943 90.3064C47.7735 89.3018 49.7071 89.607 50.7131 90.9967C51.7147 92.3759 51.4095 94.3125 50.0228 95.3156C31.2004 108.981 21.6533 124.792 21.6533 142.312C21.6533 167.901 42.4712 188.719 68.0596 188.719C93.648 188.719 114.466 167.901 114.466 142.312C114.466 124.798 104.922 108.987 86.0934 95.3186C84.7127 94.3125 84.4045 92.3789 85.406 90.9967C86.4121 89.616 88.3397 89.3018 89.7279 90.3094C109.958 104.999 120.65 122.983 120.65 142.316C120.653 171.313 97.0605 194.906 68.0596 194.906Z" fill="white"/>
<path d="M68.0596 167.062C54.4126 167.062 43.3096 155.959 43.3096 142.312C43.3096 128.666 54.4126 117.562 68.0596 117.562C81.7065 117.562 92.8096 128.666 92.8096 142.312C92.8096 155.959 81.7065 167.062 68.0596 167.062ZM68.0596 123.75C57.8221 123.75 49.4971 132.075 49.4971 142.312C49.4971 152.55 57.8221 160.875 68.0596 160.875C78.297 160.875 86.6221 152.55 86.6221 142.312C86.6221 132.075 78.297 123.75 68.0596 123.75Z" fill="white"/>
<path d="M68.0596 151.594C66.348 151.594 64.9658 150.212 64.9658 148.5V136.125C64.9658 134.413 66.348 133.031 68.0596 133.031C69.7696 133.031 71.1533 134.413 71.1533 136.125V148.5C71.1533 150.212 69.7696 151.594 68.0596 151.594Z" fill="white"/>
<path d="M154.746 30.9194C153.038 30.9194 151.653 29.5356 151.653 27.8256L151.646 6.1875C151.646 4.4805 153.029 3.09375 154.74 3.09375C156.447 3.09375 157.834 4.47597 157.834 6.1875L157.84 27.8256C157.84 29.5326 156.453 30.9194 154.746 30.9194Z" fill="white"/>
<path d="M139.269 34.0131C137.557 34.0131 136.175 32.6294 136.175 30.9194V12.3871C136.175 10.6771 137.557 9.29333 139.269 9.29333C140.979 9.29333 142.362 10.6771 142.362 12.3871V30.9194C142.362 32.6294 140.976 34.0131 139.269 34.0131Z" fill="white"/>
<path d="M145.462 9.28729C143.754 9.28729 142.369 7.90508 142.369 6.19656C142.369 4.48654 143.751 3.09979 145.459 3.09979L154.738 3.09375H154.741C156.448 3.09375 157.834 4.47597 157.834 6.18448C157.834 7.8945 156.448 9.28125 154.744 9.28125L145.462 9.28729Z" fill="white"/>
<path d="M139.269 15.4808C137.557 15.4808 136.175 14.0986 136.175 12.3871C136.175 7.26759 140.341 3.09979 145.462 3.09979C147.172 3.09979 148.556 4.48352 148.556 6.19354C148.556 7.90508 147.172 9.28729 145.462 9.28729C143.751 9.28729 142.362 10.6771 142.362 12.3871C142.362 14.0986 140.976 15.4808 139.269 15.4808Z" fill="white"/>
</svg>
