<svg width="69" height="45" viewBox="0 0 69 45" fill="none" xmlns="http://www.w3.org/2000/svg">
<path d="M34.9169 44.0625C44.8989 44.0625 41.3396 37.7433 42.1101 35.9263C42.0986 34.5693 42.0871 33.264 42.1331 32.4705C42.7656 32.6488 44.2577 33.4049 47.3397 36.4006C52.0979 41.2019 53.314 44.0625 57.1579 44.0625H64.2332C66.4757 44.0625 67.643 43.1339 68.2266 42.3548C68.7901 41.6015 69.3421 40.279 68.7384 38.2205C67.16 33.264 57.9543 24.7051 57.3821 23.8024C57.4684 23.6356 57.6064 23.4142 57.6782 23.2992H57.6725C59.4895 20.8986 66.424 10.5084 67.4446 6.35112C67.4475 6.34537 67.4504 6.33675 67.4504 6.32812C68.0024 4.43062 67.4964 3.20013 66.9731 2.50438C66.1854 1.46363 64.9319 0.9375 63.2385 0.9375H56.1631C53.7941 0.9375 51.9972 2.13062 51.0888 4.307C49.5679 8.17387 45.2956 16.1261 42.0929 18.9408C41.9951 14.9531 42.0612 11.9085 42.113 9.64587C42.2165 5.23275 42.55 0.9375 37.9701 0.9375H26.8496C23.9804 0.9375 21.2348 4.07125 24.2075 7.7915C26.8065 11.0517 25.1419 12.8687 25.7025 21.9135C23.5175 19.5704 19.6305 13.2425 16.882 5.15513C16.1115 2.96725 14.9442 0.940375 11.6581 0.940375H4.58275C1.7135 0.940375 0 2.50437 0 5.1235C0 11.0057 13.0209 44.0625 34.9169 44.0625ZM11.6581 5.25287C12.282 5.25287 12.3453 5.25288 12.8081 6.56675C15.6227 14.8554 21.9363 27.1201 26.5478 27.1201C30.0121 27.1201 30.0121 23.5695 30.0121 22.2326L30.0092 11.5894C29.8195 8.0675 28.5373 6.31375 27.6949 5.25L37.7804 5.2615C37.7861 5.31038 37.7229 17.0346 37.8091 19.8751C37.8091 23.9088 41.0119 26.2203 46.0115 21.1603C51.2871 15.2061 54.9355 6.30513 55.0821 5.94288C55.2978 5.42538 55.4846 5.25 56.1631 5.25H63.2385H63.2673C63.2644 5.25863 63.2644 5.26725 63.2615 5.27587C62.6146 8.29462 56.2293 17.9144 54.0931 20.9015C54.0586 20.9475 54.027 20.9964 53.9954 21.0453C53.0553 22.5805 52.2905 24.2768 54.1248 26.663H54.1276C54.2944 26.8643 54.7285 27.3357 55.361 27.9912C57.3275 30.021 64.0723 36.9613 64.6702 39.7212C64.2735 39.7845 63.8423 39.7385 57.1579 39.7529C55.7348 39.7529 54.6221 37.6254 50.3757 33.3416C46.5577 29.6271 44.0795 28.1091 41.8226 28.1091C37.4411 28.1091 37.7603 31.6655 37.8005 35.9665C37.8149 40.6297 37.7861 39.1549 37.8177 39.4481C37.5619 39.5488 36.8288 39.75 34.9169 39.75C16.675 39.75 4.7955 10.7959 4.33837 5.2615C4.4965 5.24713 6.67287 5.25575 11.6581 5.25287Z" fill="black"/>
</svg>
