<?xml version="1.0" encoding="utf-8"?>
<!-- Generator: Adobe Illustrator 25.2.3, SVG Export Plug-In . SVG Version: 6.00 Build 0)  -->
<!DOCTYPE svg PUBLIC "-//W3C//DTD SVG 1.1//EN" "http://www.w3.org/Graphics/SVG/1.1/DTD/svg11.dtd" [
	<!ENTITY ns_extend "http://ns.adobe.com/Extensibility/1.0/">
	<!ENTITY ns_ai "http://ns.adobe.com/AdobeIllustrator/10.0/">
	<!ENTITY ns_graphs "http://ns.adobe.com/Graphs/1.0/">
	<!ENTITY ns_vars "http://ns.adobe.com/Variables/1.0/">
	<!ENTITY ns_imrep "http://ns.adobe.com/ImageReplacement/1.0/">
	<!ENTITY ns_sfw "http://ns.adobe.com/SaveForWeb/1.0/">
	<!ENTITY ns_custom "http://ns.adobe.com/GenericCustomNamespace/1.0/">
	<!ENTITY ns_adobe_xpath "http://ns.adobe.com/XPath/1.0/">
]>
<svg version="1.1" id="Слой_1" xmlns:x="&ns_extend;" xmlns:i="&ns_ai;" xmlns:graph="&ns_graphs;"
	 xmlns="http://www.w3.org/2000/svg" xmlns:xlink="http://www.w3.org/1999/xlink" x="0px" y="0px" viewBox="0 0 116 135"
	 style="enable-background:new 0 0 116 135;" xml:space="preserve">
<style type="text/css">
	.st0{display:none;}
	.st1{display:inline;fill:none;stroke:url(#SVGID_1_);stroke-opacity:0.17;}
	.st2{display:none;fill:#1A1A1A;fill-opacity:0.37;}
	.st3{display:none;fill:none;stroke:url(#SVGID_2_);stroke-opacity:0.17;}
	.st4{fill:none;stroke:url(#SVGID_3_);}
	.st5{display:none;fill-opacity:0.37;}
	.st6{display:none;fill:none;stroke:url(#SVGID_4_);stroke-opacity:0.17;}
	.st7{fill:none;stroke:url(#SVGID_5_);}
	.st8{display:inline;fill:#C1C1C1;fill-opacity:0.11;}
	.st9{display:inline;fill:none;stroke:url(#SVGID_6_);}
	.st10{display:inline;fill:#60FF46;}
	.st11{display:inline;fill:#C7FFB4;}
	.st12{display:inline;fill:url(#SVGID_7_);}
</style>
<metadata>
	<sfw  xmlns="&ns_sfw;">
		<slices></slices>
		<sliceSourceBounds  bottomLeftOrigin="true" height="106.1" width="115.3" x="0" y="18.9"></sliceSourceBounds>
	</sfw>
</metadata>
<g class="st0">
	
		<linearGradient id="SVGID_1_" gradientUnits="userSpaceOnUse" x1="93.6626" y1="38.6127" x2="-52.8702" y2="191.5401" gradientTransform="matrix(1 0 0 -1 0 136)">
		<stop  offset="0" style="stop-color:#B7FF9E"/>
		<stop  offset="1" style="stop-color:#FF9E9E;stop-opacity:0"/>
	</linearGradient>
	<path class="st1" d="M12,13.6h91.3c6.4,0,11.5,5.1,11.5,11.5v69.3c0,6.4-5.1,11.5-11.5,11.5H12c-6.4,0-11.5-5.1-11.5-11.5V25.1
		C0.5,18.8,5.6,13.6,12,13.6z"/>
</g>
<g>
	<path class="st2" d="M0,22c0-6.6,5.4-12,12-12h91.3c6.6,0,12,5.4,12,12v69.3c0,6.6-5.4,12-12,12H12c-6.6,0-12-5.4-12-12V22z"/>
	
		<linearGradient id="SVGID_2_" gradientUnits="userSpaceOnUse" x1="57.654" y1="126" x2="57.654" y2="32.651" gradientTransform="matrix(1 0 0 -1 0 136)">
		<stop  offset="0" style="stop-color:#A0FF9E"/>
		<stop  offset="1" style="stop-color:#FF9E9E;stop-opacity:0"/>
	</linearGradient>
	<path class="st3" d="M0.5,22c0-6.4,5.1-11.5,11.5-11.5h91.3c6.4,0,11.5,5.1,11.5,11.5v69.3c0,6.4-5.1,11.5-11.5,11.5H12
		c-6.4,0-11.5-5.1-11.5-11.5V22z"/>
	
		<linearGradient id="SVGID_3_" gradientUnits="userSpaceOnUse" x1="57.654" y1="126" x2="57.654" y2="32.5376" gradientTransform="matrix(1 0 0 -1 0 136)">
		<stop  offset="0" style="stop-color:#FFC632"/>
		<stop  offset="1" style="stop-color:#FF9E9E;stop-opacity:0"/>
	</linearGradient>
	<path class="st4" d="M0.5,22c0-6.4,5.1-11.5,11.5-11.5h91.3c6.4,0,11.5,5.1,11.5,11.5v69.5c0,6.4-5.1,11.5-11.5,11.5H12
		c-6.4,0-11.5-5.1-11.5-11.5V22z"/>
</g>
<g>
	<path class="st5" d="M6.6,25.1c0-6.6,5.4-12,12-12h77.3c6.6,0,12,5.4,12,12V102c0,6.6-5.4,12-12,12H18.6c-6.6,0-12-5.4-12-12V25.1z
		"/>
	
		<linearGradient id="SVGID_4_" gradientUnits="userSpaceOnUse" x1="57.242" y1="122.8674" x2="57.242" y2="22" gradientTransform="matrix(1 0 0 -1 0 136)">
		<stop  offset="0" style="stop-color:#67FF32"/>
		<stop  offset="1" style="stop-color:#FF9E9E;stop-opacity:0"/>
	</linearGradient>
	<path class="st6" d="M18.6,12.6c-6.9,0-12.5,5.6-12.5,12.5V102c0,6.9,5.6,12.5,12.5,12.5h77.3c6.9,0,12.5-5.6,12.5-12.5V25.1
		c0-6.9-5.6-12.5-12.5-12.5H18.6z"/>
	
		<linearGradient id="SVGID_5_" gradientUnits="userSpaceOnUse" x1="57.2624" y1="123.4331" x2="57.2624" y2="21.3934" gradientTransform="matrix(1 0 0 -1 0 136)">
		<stop  offset="0" style="stop-color:#FFC632"/>
		<stop  offset="1" style="stop-color:#FF9E9E;stop-opacity:0"/>
	</linearGradient>
	<path class="st7" d="M18.6,12.7c-6.9,0-12.5,5.6-12.5,12.5V102c0,6.9,5.6,12.5,12.5,12.5h77.3c6.9,0,12.5-5.6,12.5-12.5V25.2
		c0-6.9-5.6-12.5-12.5-12.5H18.6z"/>
</g>
<g class="st0">
	<path class="st8" d="M7,86l20.2,3.7c2.7,0.5,5.6-0.2,7.8-1.8l2.5-1.9l6,13.5l7-13.5h20l3,15.5L108,86v18c0,5.5-4.5,10-10,10H17
		c-5.5,0-10-4.5-10-10V86z"/>
	
		<linearGradient id="SVGID_6_" gradientUnits="userSpaceOnUse" x1="57.5" y1="50" x2="57.5" y2="22" gradientTransform="matrix(1 0 0 -1 0 136)">
		<stop  offset="0" style="stop-color:#E5E5E5;stop-opacity:8.000000e-02"/>
		<stop  offset="1" style="stop-color:#E5E5E5;stop-opacity:0"/>
	</linearGradient>
	<path class="st9" d="M7.1,85.5l-0.6-0.1V86v18c0,5.8,4.7,10.5,10.5,10.5h81c5.8,0,10.5-4.7,10.5-10.5V86v-0.8l-0.7,0.3l-33.9,15.2
		L71,85.9l-0.1-0.4h-0.4h-20h-0.3l-0.1,0.3l-6.5,12.6L38,85.8l-0.3-0.6l-0.5,0.4l-2.5,1.9c-2.1,1.6-4.8,2.2-7.4,1.7L7.1,85.5z"/>
</g>
<g class="st0">
	<path class="st10" d="M39.2,12.5H77c2.1,0,3.8,1.7,3.8,3.8v0c0,2.1-1.7,3.8-3.8,3.8H39.2c-2.1,0-3.8-1.7-3.8-3.8v0
		C35.4,14.2,37.1,12.5,39.2,12.5z"/>
</g>
<g class="st0">
	<path class="st11" d="M39.2,12.5H77c2.1,0,3.8,1.7,3.8,3.8v0c0,2.1-1.7,3.8-3.8,3.8H39.2c-2.1,0-3.8-1.7-3.8-3.8v0
		C35.4,14.2,37.1,12.5,39.2,12.5z"/>
</g>
<g class="st0">
	
		<linearGradient id="SVGID_7_" gradientUnits="userSpaceOnUse" x1="58" y1="43" x2="58" y2="19.945" gradientTransform="matrix(1 0 0 -1 0 136)">
		<stop  offset="0" style="stop-color:#46FF59;stop-opacity:0"/>
		<stop  offset="0.9219" style="stop-color:#6BFF46"/>
	</linearGradient>
	<path class="st12" d="M26,113c0-1.6,1.3-3,2.9-3.1C55.8,107.1,45.9,93,59,93c14,0,2.8,12.7,28.2,16.7c1.6,0.3,2.8,1.6,2.8,3.2
		c0,1.8-1.4,3.2-3.2,3.2H29.1C27.4,116.1,26,114.7,26,113z"/>
</g>
<g class="st0">
	<path class="st11" d="M27,112h62c0.6,0,1,0.4,1,1l0,0c0,0.6-0.4,1-1,1H27c-0.6,0-1-0.4-1-1l0,0C26,112.4,26.4,112,27,112z"/>
</g>
</svg>
