<svg width="104" height="33" viewBox="0 0 104 33" fill="none" xmlns="http://www.w3.org/2000/svg">
<path d="M11.9611 2.99734H2.79669V4.79354H11.9611V7.41347H2.79669V8.59518C2.79842 8.67973 2.81773 8.76305 2.85344 8.84002C2.88915 8.91699 2.9405 8.98601 3.00435 9.04285C3.12153 9.15731 3.28951 9.21477 3.50829 9.21524H11.9611V11.8192H3.50829C2.602 11.8192 1.80487 11.4818 1.11689 10.8071C0.461515 10.1643 0.13359 9.36955 0.133118 8.42279V0.385742H11.9611V2.99734Z" fill="white"/>
<path d="M20.1119 0.385742H32.8748V4.70735C32.8748 6.70977 32.4509 8.32802 31.6033 9.56211C30.5694 11.0687 28.9808 11.8217 26.8375 11.8213H20.1119V0.385742ZM22.7911 9.04494H26.5972C28.8364 9.04494 29.9561 7.54948 29.9561 4.55859V2.99734H22.7911V9.04494Z" fill="white"/>
<path d="M41.0256 0.385742H43.6885V11.8213H41.0256V0.385742Z" fill="white"/>
<path d="M51.8394 11.8213V0.385742H63.8828V3.52285C63.8828 4.62115 63.6189 5.44997 63.0911 6.00932C63.7252 6.46393 64.0425 7.22997 64.043 8.30741V9.31117C64.043 10.0434 63.8138 10.6396 63.3555 11.0997C63.1258 11.3321 62.8502 11.516 62.5455 11.64C62.2408 11.7641 61.9134 11.8258 61.5835 11.8213H51.8394ZM54.5022 4.79354H59.8761C60.6444 4.79354 61.0283 4.4432 61.0279 3.74251V2.99734H54.5022V4.79354ZM54.5022 9.20899H59.9647C60.6735 9.20899 61.0279 8.90777 61.0279 8.30533C61.0279 7.70288 60.6735 7.40491 59.9647 7.41139H54.5022V9.20899Z" fill="white"/>
<path d="M74.8567 8.59727C74.8587 8.68178 74.8781 8.76502 74.9138 8.84196C74.9495 8.9189 75.0007 8.98795 75.0644 9.04494C75.1811 9.1594 75.3491 9.21686 75.5683 9.21733H84.0211V11.8213H75.5683C74.662 11.8213 73.8649 11.4839 73.1769 10.8092C72.5215 10.1664 72.1938 9.37164 72.1938 8.42488V0.385742H74.8567V8.59727Z" fill="white"/>
<path d="M103.999 2.99734H94.8349V4.79354H103.999V7.41347H94.8349V8.59518C94.8368 8.67969 94.8563 8.76293 94.8919 8.83987C94.9276 8.91681 94.9789 8.98586 95.0425 9.04285C95.1602 9.15731 95.3282 9.21477 95.5465 9.21524H103.999V11.8192H95.5465C94.6402 11.8192 93.8433 11.4818 93.1558 10.8071C92.4994 10.1643 92.1715 9.36955 92.172 8.42279V0.385742H103.999V2.99734Z" fill="white"/>
<path d="M0.134521 28.7171V20.208H2.94267V28.7331C2.94434 28.9245 3.02261 29.1076 3.16062 29.2429C3.29863 29.3783 3.48534 29.455 3.68051 29.4567H6.78209V20.2115H9.57324V29.4567H13.3963V20.2115H16.2038V32.1948H3.67838C2.73901 32.1931 1.83859 31.8264 1.17435 31.175C0.510116 30.5235 0.136208 29.6404 0.134521 28.7191V28.7171Z" fill="white"/>
<path d="M24.7458 23.7673C24.7458 22.7756 25.0896 21.9415 25.7771 21.2649C26.4925 20.5577 27.3279 20.2041 28.2833 20.2041H38.1749V28.6311C38.1749 29.6228 37.8312 30.457 37.1437 31.1336C36.4283 31.8403 35.5929 32.1939 34.6375 32.1944H28.2833C27.3279 32.1944 26.4925 31.8408 25.7771 31.1336C25.0896 30.4593 24.7458 29.6252 24.7458 28.6311V23.7673ZM27.5377 28.8153C27.5408 28.9036 27.5616 28.9905 27.5989 29.0709C27.6362 29.1513 27.6894 29.2236 27.7553 29.2839C27.9011 29.4084 28.0902 29.4731 28.2833 29.4646H29.1388V29.4563H33.7827V29.4646H34.6375C34.8306 29.4732 35.0198 29.4085 35.1655 29.2839C35.2315 29.2237 35.2848 29.1513 35.3222 29.0709C35.3597 28.9905 35.3806 28.9037 35.3838 28.8153V22.945H29.1388V22.9367H28.2833C28.09 22.9281 27.9008 22.9931 27.7553 23.1181C27.6893 23.1782 27.6361 23.2506 27.5988 23.331C27.5615 23.4114 27.5407 23.4983 27.5377 23.5866V28.8153Z" fill="white"/>
<path d="M47.764 21.2442C48.0856 20.9104 48.4745 20.6459 48.9059 20.4676C49.3374 20.2893 49.802 20.201 50.2702 20.2084H60.3348V24.9687C60.3348 25.9335 59.9967 26.75 59.3205 27.4183C58.9866 27.757 58.5838 28.0232 58.1383 28.1996L60.1753 32.1952H57.3919L55.3471 28.4297H49.504V32.1952H46.7129V23.6945C46.7167 22.757 47.067 21.9402 47.764 21.2442ZM50.2702 22.9458C50.1705 22.9449 50.0718 22.965 49.9807 23.0047C49.8896 23.0444 49.8083 23.1028 49.7422 23.1759C49.6684 23.2416 49.6094 23.3216 49.569 23.4109C49.5286 23.5002 49.5077 23.5968 49.5076 23.6945V25.6819H56.8589C56.9516 25.6813 57.0433 25.6626 57.1285 25.6268C57.2137 25.591 57.2908 25.5388 57.3551 25.4733C57.4207 25.4056 57.4717 25.3256 57.5048 25.238C57.538 25.1504 57.5526 25.0571 57.5479 24.9638V22.941L50.2702 22.9458Z" fill="white"/>
<path d="M82.5306 20.208L76.9476 26.3071L82.3293 32.1934H78.5728L75.0694 28.3619L71.5652 32.1934H68.8854V20.208H71.6765V27.9691L78.7763 20.208H82.5306Z" fill="white"/>
<path d="M103.999 28.6705C103.999 29.6678 103.661 30.498 102.985 31.1611C102.281 31.8521 101.454 32.1976 100.504 32.1976H91.082V29.4595H100.169C100.28 29.4605 100.39 29.4391 100.493 29.3966C100.595 29.3542 100.687 29.2916 100.764 29.2127C100.896 29.0911 100.99 28.934 101.032 28.7609V27.4867H91.0735V23.7351C91.0735 22.7378 91.4116 21.9074 92.0877 21.2437C92.7923 20.5533 93.6192 20.208 94.5684 20.208H103.991V22.9454H94.5691C94.458 22.9446 94.3479 22.9661 94.2455 23.0086C94.1431 23.051 94.0507 23.1135 93.9738 23.1922C93.7895 23.3776 93.6974 23.5585 93.6974 23.7351V24.9105H103.991L103.999 28.6705Z" fill="white"/>
</svg>
