<svg width="46" height="44" viewBox="0 0 46 44" fill="none" xmlns="http://www.w3.org/2000/svg">
<path d="M12.4982 30.0476C11.8598 29.3833 10.742 29.3007 10.0123 29.8547L9.99316 29.8423L8.34194 31.4935C7.9799 31.8545 7.78139 32.3361 7.78139 32.8481C7.75962 33.8793 8.66756 34.7853 9.69765 34.7644C10.2973 34.7741 10.8314 34.4743 11.2225 34.0335L12.4982 32.7579C12.7655 32.4906 12.9448 32.1579 13.0192 31.7958C13.1529 31.1696 12.9553 30.4981 12.4982 30.0476Z" fill="black"/>
<path d="M7.90546 24.4342C7.15802 23.6866 5.94352 23.6874 5.19517 24.4342C5.02125 24.609 3.94887 25.6807 3.75036 25.8801C2.02663 27.7508 4.58781 30.313 6.45952 28.5904C6.45952 28.5904 7.7135 27.3363 7.90546 27.1445C8.65336 26.3978 8.65336 25.182 7.90546 24.4342Z" fill="black"/>
<path d="M16.4164 34.4181C15.9044 34.4181 15.4228 34.6178 15.0607 34.9798L13.6148 36.4258C13.608 36.4325 13.6013 36.4393 13.5945 36.4472C12.8699 37.1631 12.8808 38.4307 13.6148 39.1361C14.3626 39.8827 15.5784 39.8827 16.3251 39.1361L17.7721 37.689C18.9706 36.4936 18.1092 34.4117 16.4164 34.4181Z" fill="black"/>
<path d="M29.2766 13.1475C26.3181 15.013 22.3514 14.6589 19.7765 12.0839L16.4244 8.73301L20.6077 4.54972C16.1146 -0.492453 8.2138 -0.812319 3.43116 4.00281C-1.37743 8.77869 -1.06919 16.6701 3.96239 21.1646C7.62663 19.1166 12.1326 21.9771 11.8361 26.1498C14.2624 26.412 16.3165 28.6112 16.4277 31.038C18.7093 30.9892 20.9756 32.6979 21.5313 34.9518C23.4308 34.4426 25.5596 35.0733 26.8605 36.5781L26.8989 36.533C28.7848 37.6653 30.78 35.3396 29.3577 33.6457L29.361 33.6412C29.3317 33.613 21.7445 26.0257 21.7445 26.0257C22.3407 25.4295 23.5406 24.2296 24.1367 23.6335L31.6664 31.1632C33.537 32.8866 36.0998 30.3237 34.3756 28.4529L26.847 20.9232C27.4432 20.327 28.6431 19.1271 29.2392 18.531C30.9315 20.2231 35.037 24.3288 36.7689 26.0607C37.482 26.8035 38.7661 26.8032 39.4792 26.0607C40.2259 25.3129 40.2259 24.0971 39.4792 23.3504L29.2766 13.1475Z" fill="black"/>
<path d="M42.5686 4.00269C37.9838 -0.580997 30.524 -0.580997 25.9391 4.00269C25.0477 4.89473 22.0519 7.89116 21.21 8.73301L22.1687 9.6917C23.8357 11.3587 26.5471 11.3587 28.213 9.6917L29.4096 8.49503C30.0459 9.13826 41.7249 20.7973 42.0531 21.1487C47.0726 16.6525 47.3701 8.77237 42.5686 4.00269Z" fill="black"/>
<path d="M24.2349 38.7221C23.487 37.9754 22.272 37.9744 21.5246 38.7221L20.0787 40.1681C19.3346 40.8813 19.3349 42.165 20.0787 42.8783C20.793 43.6207 22.0751 43.6203 22.789 42.8783L24.2349 41.4324C24.9774 40.72 24.9774 39.4328 24.2349 38.7221Z" fill="black"/>
</svg>
